  0
SECTION
  2
HEADER
  9
$ACADVER
  1
AC1018
  9
$HANDSEED
  5
FFFFFFFF
  9
$ANGBASE
  50
0.0
  9
$ANGDIR
  70
1
  9
$MEASUREMENT
  70
1
  9
$INSUNITS
  70
4
  0
ENDSEC
  0
SECTION
  2
TABLES
  0
TABLE
  2
APPID
  5
1
330
0
100
AcDbSymbolTable
 70
1
  0
APPID
  5
2
330
1
100
AcDbSymbolTableRecord
100
AcDbRegAppTableRecord
  2
ACAD
 70
0
  0
ENDTAB
  0
TABLE
  2
LTYPE
  5
3
330
0
100
AcDbSymbolTable
 70
6
  0
LTYPE
  5
4
330
3
100
AcDbSymbolTableRecord
100
AcDbLinetypeTableRecord
  2
ByBlock
 70
0
  3

 72
65
 73
0
 40
0
  0
LTYPE
  5
5
330
3
100
AcDbSymbolTableRecord
100
AcDbLinetypeTableRecord
  2
ByLayer
 70
0
  3

 72
65
 73
0
 40
0
  0
LTYPE
  5
6
330
3
100
AcDbSymbolTableRecord
100
AcDbLinetypeTableRecord
  2
CONTINUOUS
 70
0
  3
Solid line
 72
65
 73
0
 40
0
  0
LTYPE
  5
7
330
3
100
AcDbSymbolTableRecord
100
AcDbLinetypeTableRecord
  2
DASHDOT
 70
0
  3
Dash Dot ____ _ ____ _
 72
65
 73
4
 40
2
 49
1.25
 74
0
 49
-0.25
 74
0
 49
0.25
 74
0
 49
-0.25
 74
0
  0
LTYPE
  5
8
330
3
100
AcDbSymbolTableRecord
100
AcDbLinetypeTableRecord
  2
DASHED
 70
0
  3
Dashed __ __ __ __ __
 72
65
 73
2
 40
0.75
 49
0.5
 74
0
 49
-0.25
 74
0
  0
LTYPE
  5
9
330
3
100
AcDbSymbolTableRecord
100
AcDbLinetypeTableRecord
  2
DOTTED
 70
0
  3
Dotted .  .  .  .
 72
65
 73
2
 40
0.2
 49
0.0
 74
0
 49
-0.2
 74
0
  0
ENDTAB
  0
TABLE
  2
STYLE
  5
A
330
0
100
AcDbSymbolTable
 70
4
  0
STYLE
  5
B
330
A
100
AcDbSymbolTableRecord
100
AcDbTextStyleTableRecord
  2
KICAD
 70
0
 40
0
 41
1
 42
1
 50
0
 71
0
  3
isocp.shx
  0
STYLE
  5
C
330
A
100
AcDbSymbolTableRecord
100
AcDbTextStyleTableRecord
  2
KICADB
 70
0
 40
0
 41
1
 42
1
 50
0
 71
0
  3
isocp.shx
  0
STYLE
  5
D
330
A
100
AcDbSymbolTableRecord
100
AcDbTextStyleTableRecord
  2
KICADI
 70
0
 40
0
 41
1
 42
1
 50
15
 71
0
  3
isocp.shx
  0
STYLE
  5
E
330
A
100
AcDbSymbolTableRecord
100
AcDbTextStyleTableRecord
  2
KICADBI
 70
0
 40
0
 41
1
 42
1
 50
15
 71
0
  3
isocp.shx
  0
ENDTAB
  0
TABLE
  2
LAYER
  5
F
330
0
100
AcDbSymbolTable
 70
2
  0
LAYER
  5
12
330
F
100
AcDbSymbolTableRecord
100
AcDbLayerTableRecord
  2
0
 70
0
 62
7
  6
CONTINUOUS
390
10
  0
LAYER
  5
13
330
F
100
AcDbSymbolTableRecord
100
AcDbLayerTableRecord
  2
BLACK
 70
0
 62
250
  6
CONTINUOUS
390
10
  0
ENDTAB
  0
TABLE
  2
VPORT
  5
14
330
0
100
AcDbSymbolTable
 70
0
  0
ENDTAB
  0
TABLE
  2
VIEW
  5
15
330
0
100
AcDbSymbolTable
 70
0
  0
ENDTAB
  0
TABLE
  2
UCS
  5
16
330
0
100
AcDbSymbolTable
 70
0
  0
ENDTAB
  0
TABLE
  2
DIMSTYLE
  5
17
330
0
100
AcDbSymbolTable
 70
1
100
AcDbDimStyleTable
 71
0
  0
DIMSTYLE
105
18
330
17
100
AcDbSymbolTableRecord
100
AcDbDimStyleTableRecord
  2
Standard
 70
0
  0
ENDTAB
  0
TABLE
  2
BLOCK_RECORD
  5
19
330
0
100
AcDbSymbolTable
 70
3
  0
BLOCK_RECORD
  5
1A
330
19
100
AcDbSymbolTableRecord
100
AcDbBlockTableRecord
  2
*Model_Space
340
1D
 70
0
280
1
281
0
  0
BLOCK_RECORD
  5
1B
330
19
100
AcDbSymbolTableRecord
100
AcDbBlockTableRecord
  2
*Paper_Space
340
1E
 70
0
280
1
281
0
  0
BLOCK_RECORD
  5
1C
330
19
100
AcDbSymbolTableRecord
100
AcDbBlockTableRecord
  2
*Paper_Space0
340
1F
 70
0
280
1
281
0
  0
ENDTAB
  0
ENDSEC
  0
SECTION
  2
BLOCKS
  0
BLOCK
  5
23
330
1A
100
AcDbEntity
  8
0
100
AcDbBlockBegin
  2
*Model_Space
 70
0
 10
0.0
 20
0.0
 30
0.0
  3
*Model_Space
  1

  0
ENDBLK
  5
22
330
1A
100
AcDbEntity
  8
0
100
AcDbBlockEnd
  0
BLOCK
  5
25
330
1B
100
AcDbEntity
 67
1
  8
0
100
AcDbBlockBegin
  2
*Paper_Space
 70
0
 10
0.0
 20
0.0
 30
0.0
  3
*Paper_Space
  1

  0
ENDBLK
  5
24
330
1B
100
AcDbEntity
 67
1
  8
0
100
AcDbBlockEnd
  0
BLOCK
  5
27
330
1C
100
AcDbEntity
 67
1
  8
0
100
AcDbBlockBegin
  2
*Paper_Space0
 70
0
 10
0.0
 20
0.0
 30
0.0
  3
*Paper_Space0
  1

  0
ENDBLK
  5
26
330
1C
100
AcDbEntity
 67
1
  8
0
100
AcDbBlockEnd
  0
ENDSEC
  0
SECTION
  2
ENTITIES
  0
ARC
  5
28
330
1A
100
AcDbEntity
  8
BLACK
100
AcDbCircle
 10
148.5003999999999849
 20
-90.0000999999999891
 30
0
 40
35.000000141597738
100
AcDbArc
 50
118.17864664
 51
174.31574435
  0
ARC
  5
29
330
1A
100
AcDbEntity
  8
BLACK
100
AcDbCircle
 10
114.6675999999999931
 20
-86.6324999999999932
 30
0
 40
1.000031899023726
100
AcDbArc
 50
-185.68272063
 51
-120.00000334
  0
LINE
  5
2A
330
1A
100
AcDbEntity
  8
BLACK
  6
CONTINUOUS
100
AcDbLine
 10
114.1675839999999909
 20
-87.4985530000000011
 30
0
 11
118.0058349999999905
 21
-89.7145659999999907
 31
0
  0
ARC
  5
2B
330
1A
100
AcDbEntity
  8
BLACK
100
AcDbCircle
 10
117.5057999999999936
 20
-90.5805999999999898
 30
0
 40
1.0000249448793763
100
AcDbArc
 50
1.07340276
 51
59.99850961
  0
LINE
  5
2C
330
1A
100
AcDbEntity
  8
BLACK
  6
CONTINUOUS
100
AcDbLine
 10
132.5003979999999899
 20
-48.3001019999999954
 30
0
 11
132.5003999999999849
 21
-57.7441509999999951
 31
0
  0
LINE
  5
2D
330
1A
100
AcDbEntity
  8
BLACK
  6
CONTINUOUS
100
AcDbLine
 10
132.5003999999999849
 20
-57.7441509999999951
 30
0
 11
132.5365129999999851
 21
-57.7635000000000005
 31
0
  0
ARC
  5
2E
330
1A
100
AcDbEntity
  8
BLACK
100
AcDbCircle
 10
132.3002999999999929
 20
-58.2042999999999964
 30
0
 40
0.5001012111253081
100
AcDbArc
 50
0.00733239
 51
61.81432618
  0
LINE
  5
2F
330
1A
100
AcDbEntity
  8
BLACK
  6
CONTINUOUS
100
AcDbLine
 10
132.5365119999999877
 20
-58.8462339999999955
 30
0
 11
131.9726210000000037
 21
-59.1483190000000008
 31
0
  0
LINE
  5
30
330
1A
100
AcDbEntity
  8
BLACK
  6
CONTINUOUS
100
AcDbLine
 10
132.8003999999999962
 20
-58.2042359999999945
 30
0
 11
132.8003980000000013
 21
-58.4054969999999969
 31
0
  0
ARC
  5
31
330
1A
100
AcDbEntity
  8
BLACK
100
AcDbCircle
 10
132.3003999999999962
 20
-58.4054999999999964
 30
0
 40
0.499998000009
100
AcDbArc
 50
-61.82095534
 51
0.00034378
  0
ARC
  5
32
330
1A
100
AcDbEntity
  8
BLACK
100
AcDbCircle
 10
148.5003999999999849
 20
-90.0000999999999891
 30
0
 40
30.0000023695369862
100
AcDbArc
 50
-178.92704323
 51
-121.07294832
  0
ARC
  5
33
330
1A
100
AcDbEntity
  8
BLACK
100
AcDbCircle
 10
132.5002999999999815
 20
-116.5519999999999925
 30
0
 40
1.0001039804065375
100
AcDbArc
 50
0.00326553
 51
58.92395206
  0
LINE
  5
34
330
1A
100
AcDbEntity
  8
BLACK
  6
CONTINUOUS
100
AcDbLine
 10
133.5003999999999849
 20
-116.5519429999999943
 30
0
 11
133.5004009999999823
 21
-120.9839699999999993
 31
0
  0
ARC
  5
35
330
1A
100
AcDbEntity
  8
BLACK
100
AcDbCircle
 10
134.5003999999999849
 20
-120.9839999999999947
 30
0
 40
0.9999726010371484
100
AcDbArc
 50
-180.00171888
 51
-114.31646702
  0
ARC
  5
36
330
1A
100
AcDbEntity
  8
BLACK
100
AcDbCircle
 10
148.5003999999999849
 20
-90.0000999999999891
 30
0
 40
35.0000019721500237
100
AcDbArc
 50
-114.31573757
 51
-65.68426176
  0
ARC
  5
37
330
1A
100
AcDbEntity
  8
BLACK
100
AcDbCircle
 10
164.5002999999999815
 20
-116.5518999999999892
 30
0
 40
0.9999010008000792
100
AcDbArc
 50
-238.93103564
 51
-179.99770794
  0
ARC
  5
38
330
1A
100
AcDbEntity
  8
BLACK
100
AcDbCircle
 10
162.5004999999999882
 20
-120.9839999999999947
 30
0
 40
0.9999000004205421
100
AcDbArc
 50
-65.68873103
 51
0.00166174
  0
LINE
  5
39
330
1A
100
AcDbEntity
  8
BLACK
  6
CONTINUOUS
100
AcDbLine
 10
163.5003999999999849
 20
-120.9839709999999968
 30
0
 11
163.5003989999999874
 21
-116.5519399999999877
 31
0
  0
ARC
  5
3A
330
1A
100
AcDbEntity
  8
BLACK
100
AcDbCircle
 10
164.7002999999999986
 20
-58.2042000000000002
 30
0
 40
0.4999000013692739
100
AcDbArc
 50
-225.57841778
 51
-179.99575926
  0
LINE
  5
3B
330
1A
100
AcDbEntity
  8
BLACK
  6
CONTINUOUS
100
AcDbLine
 10
164.2004000000000019
 20
-58.4054949999999948
 30
0
 11
164.2004000000000019
 21
-58.2042369999999991
 31
0
  0
ARC
  5
3C
330
1A
100
AcDbEntity
  8
BLACK
100
AcDbCircle
 10
164.7004000000000019
 20
-58.4054999999999964
 30
0
 40
0.4999957445278909
100
AcDbArc
 50
-180.00057296
 51
-118.17888954
  0
LINE
  5
3D
330
1A
100
AcDbEntity
  8
BLACK
  6
CONTINUOUS
100
AcDbLine
 10
164.5003999999999849
 20
-48.300103
 30
0
 11
132.5003979999999899
 21
-48.3001019999999954
 31
0
  0
ARC
  5
3E
330
1A
100
AcDbEntity
  8
BLACK
100
AcDbCircle
 10
164.0004999999999882
 20
-57.4900999999999982
 30
0
 40
0.4999010000490097
100
AcDbArc
 50
-45.58050674
 51
0.00080230
  0
LINE
  5
3F
330
1A
100
AcDbEntity
  8
BLACK
  6
CONTINUOUS
100
AcDbLine
 10
164.5004009999999823
 20
-57.4900929999999946
 30
0
 11
164.5003999999999849
 21
-48.300103
 31
0
  0
LINE
  5
40
330
1A
100
AcDbEntity
  8
BLACK
  6
CONTINUOUS
100
AcDbLine
 10
165.0281779999999969
 20
-59.1483169999999987
 30
0
 11
164.4642889999999795
 21
-58.8462350000000001
 31
0
  0
ARC
  5
41
330
1A
100
AcDbEntity
  8
BLACK
100
AcDbCircle
 10
148.5003999999999849
 20
-90.0000999999999891
 30
0
 40
34.9999994270910406
100
AcDbArc
 50
5.68425760
 51
61.82135634
  0
ARC
  5
42
330
1A
100
AcDbEntity
  8
BLACK
100
AcDbCircle
 10
148.5003999999999849
 20
-90.0000999999999891
 30
0
 40
30.000001144930593
100
AcDbArc
 50
-58.92704415
 51
-1.07295670
  0
ARC
  5
43
330
1A
100
AcDbEntity
  8
BLACK
100
AcDbCircle
 10
179.4950000000000045
 20
-90.5805999999999898
 30
0
 40
1.0000344907236949
100
AcDbArc
 50
120.00149039
 51
178.92659510
  0
LINE
  5
44
330
1A
100
AcDbEntity
  8
BLACK
  6
CONTINUOUS
100
AcDbLine
 10
178.9949649999999792
 20
-89.7145659999999907
 30
0
 11
182.8332139999999981
 21
-87.498548999999997
 31
0
  0
ARC
  5
45
330
1A
100
AcDbEntity
  8
BLACK
100
AcDbCircle
 10
182.333200000000005
 20
-86.6324999999999932
 30
0
 40
1.0000116978780798
100
AcDbArc
 50
-59.99998131
 51
5.68278899
  0
LINE
  5
46
330
1A
100
AcDbEntity
  8
BLACK
  6
CONTINUOUS
100
AcDbLine
 10
134.194184000000007
 20
-57.5529999999999973
 30
0
 11
134.8941839999999956
 21
-58.2530000000000001
 31
0
  0
LINE
  5
47
330
1A
100
AcDbEntity
  8
BLACK
  6
CONTINUOUS
100
AcDbLine
 10
134.8941839999999956
 20
-57.5529999999999973
 30
0
 11
134.194184000000007
 21
-58.2530000000000001
 31
0
  0
LINE
  5
48
330
1A
100
AcDbEntity
  8
BLACK
  6
CONTINUOUS
100
AcDbLine
 10
135.5220209999999952
 20
-57.0077349999999967
 30
0
 11
136.2220209999999838
 21
-57.7077349999999996
 31
0
  0
LINE
  5
49
330
1A
100
AcDbEntity
  8
BLACK
  6
CONTINUOUS
100
AcDbLine
 10
136.2220209999999838
 20
-57.0077349999999967
 30
0
 11
135.5220209999999952
 21
-57.7077349999999996
 31
0
  0
LINE
  5
4A
330
1A
100
AcDbEntity
  8
BLACK
  6
CONTINUOUS
100
AcDbLine
 10
136.8711020000000076
 20
-56.5173789999999983
 30
0
 11
137.5711019999999962
 21
-57.217378999999994
 31
0
  0
LINE
  5
4B
330
1A
100
AcDbEntity
  8
BLACK
  6
CONTINUOUS
100
AcDbLine
 10
137.5711019999999962
 20
-56.5173789999999983
 30
0
 11
136.8711020000000076
 21
-57.217378999999994
 31
0
  0
LINE
  5
4C
330
1A
100
AcDbEntity
  8
BLACK
  6
CONTINUOUS
100
AcDbLine
 10
138.2391509999999926
 20
-56.0827489999999997
 30
0
 11
138.9391509999999812
 21
-56.7827489999999955
 31
0
  0
LINE
  5
4D
330
1A
100
AcDbEntity
  8
BLACK
  6
CONTINUOUS
100
AcDbLine
 10
138.9391509999999812
 20
-56.0827489999999997
 30
0
 11
138.2391509999999926
 21
-56.7827489999999955
 31
0
  0
LINE
  5
4E
330
1A
100
AcDbEntity
  8
BLACK
  6
CONTINUOUS
100
AcDbLine
 10
139.6238749999999982
 20
-55.70458
 30
0
 11
140.3238749999999868
 21
-56.4045799999999957
 31
0
  0
LINE
  5
4F
330
1A
100
AcDbEntity
  8
BLACK
  6
CONTINUOUS
100
AcDbLine
 10
140.3238749999999868
 20
-55.70458
 30
0
 11
139.6238749999999982
 21
-56.4045799999999957
 31
0
  0
LINE
  5
50
330
1A
100
AcDbEntity
  8
BLACK
  6
CONTINUOUS
100
AcDbLine
 10
141.0229389999999796
 20
-55.3835109999999986
 30
0
 11
141.7229389999999967
 21
-56.0835109999999943
 31
0
  0
LINE
  5
51
330
1A
100
AcDbEntity
  8
BLACK
  6
CONTINUOUS
100
AcDbLine
 10
141.7229389999999967
 20
-55.3835109999999986
 30
0
 11
141.0229389999999796
 21
-56.0835109999999943
 31
0
  0
LINE
  5
52
330
1A
100
AcDbEntity
  8
BLACK
  6
CONTINUOUS
100
AcDbLine
 10
142.4339929999999868
 20
-55.1200739999999954
 30
0
 11
143.1339930000000038
 21
-55.8200739999999982
 31
0
  0
LINE
  5
53
330
1A
100
AcDbEntity
  8
BLACK
  6
CONTINUOUS
100
AcDbLine
 10
143.1339930000000038
 20
-55.1200739999999954
 30
0
 11
142.4339929999999868
 21
-55.8200739999999982
 31
0
  0
LINE
  5
54
330
1A
100
AcDbEntity
  8
BLACK
  6
CONTINUOUS
100
AcDbLine
 10
143.8546589999999981
 20
-54.9147210000000001
 30
0
 11
144.5546589999999867
 21
-55.6147209999999959
 31
0
  0
LINE
  5
55
330
1A
100
AcDbEntity
  8
BLACK
  6
CONTINUOUS
100
AcDbLine
 10
144.5546589999999867
 20
-54.9147210000000001
 30
0
 11
143.8546589999999981
 21
-55.6147209999999959
 31
0
  0
LINE
  5
56
330
1A
100
AcDbEntity
  8
BLACK
  6
CONTINUOUS
100
AcDbLine
 10
145.2825519999999813
 20
-54.767792
 30
0
 11
145.9825519999999983
 21
-55.4677919999999958
 31
0
  0
LINE
  5
57
330
1A
100
AcDbEntity
  8
BLACK
  6
CONTINUOUS
100
AcDbLine
 10
145.9825519999999983
 20
-54.767792
 30
0
 11
145.2825519999999813
 21
-55.4677919999999958
 31
0
  0
LINE
  5
58
330
1A
100
AcDbEntity
  8
BLACK
  6
CONTINUOUS
100
AcDbLine
 10
146.715266999999983
 20
-54.6795369999999963
 30
0
 11
147.4152670000000001
 21
-55.3795369999999991
 31
0
  0
LINE
  5
59
330
1A
100
AcDbEntity
  8
BLACK
  6
CONTINUOUS
100
AcDbLine
 10
147.4152670000000001
 20
-54.6795369999999963
 30
0
 11
146.715266999999983
 21
-55.3795369999999991
 31
0
  0
LINE
  5
5A
330
1A
100
AcDbEntity
  8
BLACK
  6
CONTINUOUS
100
AcDbLine
 10
148.1503999999999905
 20
-54.6501009999999994
 30
0
 11
148.8503999999999792
 21
-55.3501009999999951
 31
0
  0
LINE
  5
5B
330
1A
100
AcDbEntity
  8
BLACK
  6
CONTINUOUS
100
AcDbLine
 10
148.8503999999999792
 20
-54.6501009999999994
 30
0
 11
148.1503999999999905
 21
-55.3501009999999951
 31
0
  0
LINE
  5
5C
330
1A
100
AcDbEntity
  8
BLACK
  6
CONTINUOUS
100
AcDbLine
 10
149.5855310000000031
 20
-54.6795359999999988
 30
0
 11
150.2855309999999918
 21
-55.3795359999999945
 31
0
  0
LINE
  5
5D
330
1A
100
AcDbEntity
  8
BLACK
  6
CONTINUOUS
100
AcDbLine
 10
150.2855309999999918
 20
-54.6795359999999988
 30
0
 11
149.5855310000000031
 21
-55.3795359999999945
 31
0
  0
LINE
  5
5E
330
1A
100
AcDbEntity
  8
BLACK
  6
CONTINUOUS
100
AcDbLine
 10
151.0182479999999998
 20
-54.7677909999999954
 30
0
 11
151.7182479999999885
 21
-55.4677909999999983
 31
0
  0
LINE
  5
5F
330
1A
100
AcDbEntity
  8
BLACK
  6
CONTINUOUS
100
AcDbLine
 10
151.7182479999999885
 20
-54.7677909999999954
 30
0
 11
151.0182479999999998
 21
-55.4677909999999983
 31
0
  0
LINE
  5
60
330
1A
100
AcDbEntity
  8
BLACK
  6
CONTINUOUS
100
AcDbLine
 10
152.4461419999999805
 20
-54.9147239999999996
 30
0
 11
153.1461419999999976
 21
-55.6147239999999954
 31
0
  0
LINE
  5
61
330
1A
100
AcDbEntity
  8
BLACK
  6
CONTINUOUS
100
AcDbLine
 10
153.1461419999999976
 20
-54.9147239999999996
 30
0
 11
152.4461419999999805
 21
-55.6147239999999954
 31
0
  0
LINE
  5
62
330
1A
100
AcDbEntity
  8
BLACK
  6
CONTINUOUS
100
AcDbLine
 10
153.8668089999999893
 20
-55.1200779999999995
 30
0
 11
154.5668090000000063
 21
-55.8200779999999952
 31
0
  0
LINE
  5
63
330
1A
100
AcDbEntity
  8
BLACK
  6
CONTINUOUS
100
AcDbLine
 10
154.5668090000000063
 20
-55.1200779999999995
 30
0
 11
153.8668089999999893
 21
-55.8200779999999952
 31
0
  0
LINE
  5
64
330
1A
100
AcDbEntity
  8
BLACK
  6
CONTINUOUS
100
AcDbLine
 10
155.2778610000000015
 20
-55.3835089999999965
 30
0
 11
155.9778609999999901
 21
-56.0835089999999994
 31
0
  0
LINE
  5
65
330
1A
100
AcDbEntity
  8
BLACK
  6
CONTINUOUS
100
AcDbLine
 10
155.9778609999999901
 20
-55.3835089999999965
 30
0
 11
155.2778610000000015
 21
-56.0835089999999994
 31
0
  0
LINE
  5
66
330
1A
100
AcDbEntity
  8
BLACK
  6
CONTINUOUS
100
AcDbLine
 10
156.6769249999999829
 20
-55.7045789999999954
 30
0
 11
157.376925
 21
-56.4045789999999982
 31
0
  0
LINE
  5
67
330
1A
100
AcDbEntity
  8
BLACK
  6
CONTINUOUS
100
AcDbLine
 10
157.376925
 20
-55.7045789999999954
 30
0
 11
156.6769249999999829
 21
-56.4045789999999982
 31
0
  0
LINE
  5
68
330
1A
100
AcDbEntity
  8
BLACK
  6
CONTINUOUS
100
AcDbLine
 10
158.061647999999991
 20
-56.0827469999999977
 30
0
 11
158.7616479999999797
 21
-56.7827470000000005
 31
0
  0
LINE
  5
69
330
1A
100
AcDbEntity
  8
BLACK
  6
CONTINUOUS
100
AcDbLine
 10
158.7616479999999797
 20
-56.0827469999999977
 30
0
 11
158.061647999999991
 21
-56.7827470000000005
 31
0
  0
LINE
  5
6A
330
1A
100
AcDbEntity
  8
BLACK
  6
CONTINUOUS
100
AcDbLine
 10
159.4297009999999943
 20
-56.5173780000000008
 30
0
 11
160.129700999999983
 21
-57.2173779999999965
 31
0
  0
LINE
  5
6B
330
1A
100
AcDbEntity
  8
BLACK
  6
CONTINUOUS
100
AcDbLine
 10
160.129700999999983
 20
-56.5173780000000008
 30
0
 11
159.4297009999999943
 21
-57.2173779999999965
 31
0
  0
LINE
  5
6C
330
1A
100
AcDbEntity
  8
BLACK
  6
CONTINUOUS
100
AcDbLine
 10
160.7787799999999834
 20
-57.0077379999999962
 30
0
 11
161.4787800000000004
 21
-57.7077379999999991
 31
0
  0
LINE
  5
6D
330
1A
100
AcDbEntity
  8
BLACK
  6
CONTINUOUS
100
AcDbLine
 10
161.4787800000000004
 20
-57.0077379999999962
 30
0
 11
160.7787799999999834
 21
-57.7077379999999991
 31
0
  0
LINE
  5
6E
330
1A
100
AcDbEntity
  8
BLACK
  6
CONTINUOUS
100
AcDbLine
 10
162.1066160000000025
 20
-57.5529989999999998
 30
0
 11
162.8066159999999911
 21
-58.2529989999999955
 31
0
  0
LINE
  5
6F
330
1A
100
AcDbEntity
  8
BLACK
  6
CONTINUOUS
100
AcDbLine
 10
162.8066159999999911
 20
-57.5529989999999998
 30
0
 11
162.1066160000000025
 21
-58.2529989999999955
 31
0
  0
LINE
  5
70
330
1A
100
AcDbEntity
  8
BLACK
  6
CONTINUOUS
100
AcDbLine
 10
116.1753360000000015
 20
-128.2149399999999844
 30
0
 11
116.1753360000000015
 21
-126.2149399999999986
 31
0
  0
LINE
  5
71
330
1A
100
AcDbEntity
  8
BLACK
  6
CONTINUOUS
100
AcDbLine
 10
116.1753360000000015
 20
-126.2149399999999986
 30
0
 11
116.6515259999999898
 21
-126.2149399999999986
 31
0
  0
LINE
  5
72
330
1A
100
AcDbEntity
  8
BLACK
  6
CONTINUOUS
100
AcDbLine
 10
116.6515259999999898
 20
-126.2149399999999986
 30
0
 11
116.9372410000000002
 21
-126.3101779999999934
 31
0
  0
LINE
  5
73
330
1A
100
AcDbEntity
  8
BLACK
  6
CONTINUOUS
100
AcDbLine
 10
116.9372410000000002
 20
-126.3101779999999934
 30
0
 11
117.1277169999999899
 21
-126.5006539999999973
 31
0
  0
LINE
  5
74
330
1A
100
AcDbEntity
  8
BLACK
  6
CONTINUOUS
100
AcDbLine
 10
117.1277169999999899
 20
-126.5006539999999973
 30
0
 11
117.2229549999999989
 21
-126.6911300000000011
 31
0
  0
LINE
  5
75
330
1A
100
AcDbEntity
  8
BLACK
  6
CONTINUOUS
100
AcDbLine
 10
117.2229549999999989
 20
-126.6911300000000011
 30
0
 11
117.3181929999999937
 21
-127.0720819999999947
 31
0
  0
LINE
  5
76
330
1A
100
AcDbEntity
  8
BLACK
  6
CONTINUOUS
100
AcDbLine
 10
117.3181929999999937
 20
-127.0720819999999947
 30
0
 11
117.3181929999999937
 21
-127.3577969999999908
 31
0
  0
LINE
  5
77
330
1A
100
AcDbEntity
  8
BLACK
  6
CONTINUOUS
100
AcDbLine
 10
117.3181929999999937
 20
-127.3577969999999908
 30
0
 11
117.2229549999999989
 21
-127.7387489999999985
 31
0
  0
LINE
  5
78
330
1A
100
AcDbEntity
  8
BLACK
  6
CONTINUOUS
100
AcDbLine
 10
117.2229549999999989
 20
-127.7387489999999985
 30
0
 11
117.1277169999999899
 21
-127.9292249999999882
 31
0
  0
LINE
  5
79
330
1A
100
AcDbEntity
  8
BLACK
  6
CONTINUOUS
100
AcDbLine
 10
117.1277169999999899
 20
-127.9292249999999882
 30
0
 11
116.9372410000000002
 21
-128.1197019999999895
 31
0
  0
LINE
  5
7A
330
1A
100
AcDbEntity
  8
BLACK
  6
CONTINUOUS
100
AcDbLine
 10
116.9372410000000002
 20
-128.1197019999999895
 30
0
 11
116.6515259999999898
 21
-128.2149399999999844
 31
0
  0
LINE
  5
7B
330
1A
100
AcDbEntity
  8
BLACK
  6
CONTINUOUS
100
AcDbLine
 10
116.6515259999999898
 20
-128.2149399999999844
 30
0
 11
116.1753360000000015
 21
-128.2149399999999844
 31
0
  0
LINE
  5
7C
330
1A
100
AcDbEntity
  8
BLACK
  6
CONTINUOUS
100
AcDbLine
 10
118.1753360000000015
 20
-128.2149399999999844
 30
0
 11
118.1753360000000015
 21
-126.8816059999999908
 31
0
  0
LINE
  5
7D
330
1A
100
AcDbEntity
  8
BLACK
  6
CONTINUOUS
100
AcDbLine
 10
118.1753360000000015
 20
-127.262558999999996
 30
0
 11
118.2705739999999963
 21
-127.0720819999999947
 31
0
  0
LINE
  5
7E
330
1A
100
AcDbEntity
  8
BLACK
  6
CONTINUOUS
100
AcDbLine
 10
118.2705739999999963
 20
-127.0720819999999947
 30
0
 11
118.3658119999999911
 21
-126.9768439999999998
 31
0
  0
LINE
  5
7F
330
1A
100
AcDbEntity
  8
BLACK
  6
CONTINUOUS
100
AcDbLine
 10
118.3658119999999911
 20
-126.9768439999999998
 30
0
 11
118.556287999999995
 21
-126.8816059999999908
 31
0
  0
LINE
  5
80
330
1A
100
AcDbEntity
  8
BLACK
  6
CONTINUOUS
100
AcDbLine
 10
118.556287999999995
 20
-126.8816059999999908
 30
0
 11
118.7467649999999963
 21
-126.8816059999999908
 31
0
  0
LINE
  5
81
330
1A
100
AcDbEntity
  8
BLACK
  6
CONTINUOUS
100
AcDbLine
 10
119.4134309999999886
 20
-128.2149399999999844
 30
0
 11
119.4134309999999886
 21
-126.8816059999999908
 31
0
  0
LINE
  5
82
330
1A
100
AcDbEntity
  8
BLACK
  6
CONTINUOUS
100
AcDbLine
 10
119.4134309999999886
 20
-126.2149399999999986
 30
0
 11
119.3181929999999937
 21
-126.3101779999999934
 31
0
  0
LINE
  5
83
330
1A
100
AcDbEntity
  8
BLACK
  6
CONTINUOUS
100
AcDbLine
 10
119.3181929999999937
 20
-126.3101779999999934
 30
0
 11
119.4134309999999886
 21
-126.4054159999999882
 31
0
  0
LINE
  5
84
330
1A
100
AcDbEntity
  8
BLACK
  6
CONTINUOUS
100
AcDbLine
 10
119.4134309999999886
 20
-126.4054159999999882
 30
0
 11
119.5086689999999976
 21
-126.3101779999999934
 31
0
  0
LINE
  5
85
330
1A
100
AcDbEntity
  8
BLACK
  6
CONTINUOUS
100
AcDbLine
 10
119.5086689999999976
 20
-126.3101779999999934
 30
0
 11
119.4134309999999886
 21
-126.2149399999999986
 31
0
  0
LINE
  5
86
330
1A
100
AcDbEntity
  8
BLACK
  6
CONTINUOUS
100
AcDbLine
 10
119.4134309999999886
 20
-126.2149399999999986
 30
0
 11
119.4134309999999886
 21
-126.4054159999999882
 31
0
  0
LINE
  5
87
330
1A
100
AcDbEntity
  8
BLACK
  6
CONTINUOUS
100
AcDbLine
 10
120.6515259999999898
 20
-128.2149399999999844
 30
0
 11
120.4610500000000002
 21
-128.1197019999999895
 31
0
  0
LINE
  5
88
330
1A
100
AcDbEntity
  8
BLACK
  6
CONTINUOUS
100
AcDbLine
 10
120.4610500000000002
 20
-128.1197019999999895
 30
0
 11
120.3658119999999911
 21
-127.9292249999999882
 31
0
  0
LINE
  5
89
330
1A
100
AcDbEntity
  8
BLACK
  6
CONTINUOUS
100
AcDbLine
 10
120.3658119999999911
 20
-127.9292249999999882
 30
0
 11
120.3658119999999911
 21
-126.2149399999999986
 31
0
  0
LINE
  5
8A
330
1A
100
AcDbEntity
  8
BLACK
  6
CONTINUOUS
100
AcDbLine
 10
121.6991450000000015
 20
-128.2149399999999844
 30
0
 11
121.5086689999999976
 21
-128.1197019999999895
 31
0
  0
LINE
  5
8B
330
1A
100
AcDbEntity
  8
BLACK
  6
CONTINUOUS
100
AcDbLine
 10
121.5086689999999976
 20
-128.1197019999999895
 30
0
 11
121.4134309999999886
 21
-127.9292249999999882
 31
0
  0
LINE
  5
8C
330
1A
100
AcDbEntity
  8
BLACK
  6
CONTINUOUS
100
AcDbLine
 10
121.4134309999999886
 20
-127.9292249999999882
 30
0
 11
121.4134309999999886
 21
-126.2149399999999986
 31
0
  0
LINE
  5
8D
330
1A
100
AcDbEntity
  8
BLACK
  6
CONTINUOUS
100
AcDbLine
 10
123.9848599999999976
 20
-128.2149399999999844
 30
0
 11
123.9848599999999976
 21
-126.2149399999999986
 31
0
  0
LINE
  5
8E
330
1A
100
AcDbEntity
  8
BLACK
  6
CONTINUOUS
100
AcDbLine
 10
123.9848599999999976
 20
-126.2149399999999986
 30
0
 11
124.6515269999999873
 21
-127.6435109999999895
 31
0
  0
LINE
  5
8F
330
1A
100
AcDbEntity
  8
BLACK
  6
CONTINUOUS
100
AcDbLine
 10
124.6515269999999873
 20
-127.6435109999999895
 30
0
 11
125.3181929999999937
 21
-126.2149399999999986
 31
0
  0
LINE
  5
90
330
1A
100
AcDbEntity
  8
BLACK
  6
CONTINUOUS
100
AcDbLine
 10
125.3181929999999937
 20
-126.2149399999999986
 30
0
 11
125.3181929999999937
 21
-128.2149399999999844
 31
0
  0
LINE
  5
91
330
1A
100
AcDbEntity
  8
BLACK
  6
CONTINUOUS
100
AcDbLine
 10
127.1277169999999899
 20
-128.2149399999999844
 30
0
 11
127.1277169999999899
 21
-127.1673210000000012
 31
0
  0
LINE
  5
92
330
1A
100
AcDbEntity
  8
BLACK
  6
CONTINUOUS
100
AcDbLine
 10
127.1277169999999899
 20
-127.1673210000000012
 30
0
 11
127.032478999999995
 21
-126.9768439999999998
 31
0
  0
LINE
  5
93
330
1A
100
AcDbEntity
  8
BLACK
  6
CONTINUOUS
100
AcDbLine
 10
127.032478999999995
 20
-126.9768439999999998
 30
0
 11
126.8420029999999912
 21
-126.8816059999999908
 31
0
  0
LINE
  5
94
330
1A
100
AcDbEntity
  8
BLACK
  6
CONTINUOUS
100
AcDbLine
 10
126.8420029999999912
 20
-126.8816059999999908
 30
0
 11
126.4610500000000002
 21
-126.8816059999999908
 31
0
  0
LINE
  5
95
330
1A
100
AcDbEntity
  8
BLACK
  6
CONTINUOUS
100
AcDbLine
 10
126.4610500000000002
 20
-126.8816059999999908
 30
0
 11
126.2705739999999963
 21
-126.9768439999999998
 31
0
  0
LINE
  5
96
330
1A
100
AcDbEntity
  8
BLACK
  6
CONTINUOUS
100
AcDbLine
 10
127.1277169999999899
 20
-128.1197019999999895
 30
0
 11
126.9372410000000002
 21
-128.2149399999999844
 31
0
  0
LINE
  5
97
330
1A
100
AcDbEntity
  8
BLACK
  6
CONTINUOUS
100
AcDbLine
 10
126.9372410000000002
 20
-128.2149399999999844
 30
0
 11
126.4610500000000002
 21
-128.2149399999999844
 31
0
  0
LINE
  5
98
330
1A
100
AcDbEntity
  8
BLACK
  6
CONTINUOUS
100
AcDbLine
 10
126.4610500000000002
 20
-128.2149399999999844
 30
0
 11
126.2705739999999963
 21
-128.1197019999999895
 31
0
  0
LINE
  5
99
330
1A
100
AcDbEntity
  8
BLACK
  6
CONTINUOUS
100
AcDbLine
 10
126.2705739999999963
 20
-128.1197019999999895
 30
0
 11
126.1753359999999873
 21
-127.9292249999999882
 31
0
  0
LINE
  5
9A
330
1A
100
AcDbEntity
  8
BLACK
  6
CONTINUOUS
100
AcDbLine
 10
126.1753359999999873
 20
-127.9292249999999882
 30
0
 11
126.1753359999999873
 21
-127.7387489999999985
 31
0
  0
LINE
  5
9B
330
1A
100
AcDbEntity
  8
BLACK
  6
CONTINUOUS
100
AcDbLine
 10
126.1753359999999873
 20
-127.7387489999999985
 30
0
 11
126.2705739999999963
 21
-127.5482729999999947
 31
0
  0
LINE
  5
9C
330
1A
100
AcDbEntity
  8
BLACK
  6
CONTINUOUS
100
AcDbLine
 10
126.2705739999999963
 20
-127.5482729999999947
 30
0
 11
126.4610500000000002
 21
-127.4530349999999999
 31
0
  0
LINE
  5
9D
330
1A
100
AcDbEntity
  8
BLACK
  6
CONTINUOUS
100
AcDbLine
 10
126.4610500000000002
 20
-127.4530349999999999
 30
0
 11
126.9372410000000002
 21
-127.4530349999999999
 31
0
  0
LINE
  5
9E
330
1A
100
AcDbEntity
  8
BLACK
  6
CONTINUOUS
100
AcDbLine
 10
126.9372410000000002
 20
-127.4530349999999999
 30
0
 11
127.1277169999999899
 21
-127.3577969999999908
 31
0
  0
LINE
  5
9F
330
1A
100
AcDbEntity
  8
BLACK
  6
CONTINUOUS
100
AcDbLine
 10
128.0800979999999925
 20
-126.8816059999999908
 30
0
 11
128.0800979999999925
 21
-128.881606000000005
 31
0
  0
LINE
  5
A0
330
1A
100
AcDbEntity
  8
BLACK
  6
CONTINUOUS
100
AcDbLine
 10
128.0800979999999925
 20
-126.9768439999999998
 30
0
 11
128.2705739999999821
 21
-126.8816059999999908
 31
0
  0
LINE
  5
A1
330
1A
100
AcDbEntity
  8
BLACK
  6
CONTINUOUS
100
AcDbLine
 10
128.2705739999999821
 20
-126.8816059999999908
 30
0
 11
128.6515269999999873
 21
-126.8816059999999908
 31
0
  0
LINE
  5
A2
330
1A
100
AcDbEntity
  8
BLACK
  6
CONTINUOUS
100
AcDbLine
 10
128.6515269999999873
 20
-126.8816059999999908
 30
0
 11
128.8420030000000054
 21
-126.9768439999999998
 31
0
  0
LINE
  5
A3
330
1A
100
AcDbEntity
  8
BLACK
  6
CONTINUOUS
100
AcDbLine
 10
128.8420030000000054
 20
-126.9768439999999998
 30
0
 11
128.9372410000000002
 21
-127.0720819999999947
 31
0
  0
LINE
  5
A4
330
1A
100
AcDbEntity
  8
BLACK
  6
CONTINUOUS
100
AcDbLine
 10
128.9372410000000002
 20
-127.0720819999999947
 30
0
 11
129.032478999999995
 21
-127.262558999999996
 31
0
  0
LINE
  5
A5
330
1A
100
AcDbEntity
  8
BLACK
  6
CONTINUOUS
100
AcDbLine
 10
129.032478999999995
 20
-127.262558999999996
 30
0
 11
129.032478999999995
 21
-127.8339869999999934
 31
0
  0
LINE
  5
A6
330
1A
100
AcDbEntity
  8
BLACK
  6
CONTINUOUS
100
AcDbLine
 10
129.032478999999995
 20
-127.8339869999999934
 30
0
 11
128.9372410000000002
 21
-128.0244629999999972
 31
0
  0
LINE
  5
A7
330
1A
100
AcDbEntity
  8
BLACK
  6
CONTINUOUS
100
AcDbLine
 10
128.9372410000000002
 20
-128.0244629999999972
 30
0
 11
128.8420030000000054
 21
-128.1197019999999895
 31
0
  0
LINE
  5
A8
330
1A
100
AcDbEntity
  8
BLACK
  6
CONTINUOUS
100
AcDbLine
 10
128.8420030000000054
 20
-128.1197019999999895
 30
0
 11
128.6515269999999873
 21
-128.2149399999999844
 31
0
  0
LINE
  5
A9
330
1A
100
AcDbEntity
  8
BLACK
  6
CONTINUOUS
100
AcDbLine
 10
128.6515269999999873
 20
-128.2149399999999844
 30
0
 11
128.2705739999999821
 21
-128.2149399999999844
 31
0
  0
LINE
  5
AA
330
1A
100
AcDbEntity
  8
BLACK
  6
CONTINUOUS
100
AcDbLine
 10
128.2705739999999821
 20
-128.2149399999999844
 30
0
 11
128.0800979999999925
 21
-128.1197019999999895
 31
0
  0
LINE
  5
AB
330
1A
100
AcDbEntity
  8
BLACK
  6
CONTINUOUS
100
AcDbLine
 10
129.8896220000000028
 20
-128.0244629999999972
 30
0
 11
129.9848599999999976
 21
-128.1197019999999895
 31
0
  0
LINE
  5
AC
330
1A
100
AcDbEntity
  8
BLACK
  6
CONTINUOUS
100
AcDbLine
 10
129.9848599999999976
 20
-128.1197019999999895
 30
0
 11
129.8896220000000028
 21
-128.2149399999999844
 31
0
  0
LINE
  5
AD
330
1A
100
AcDbEntity
  8
BLACK
  6
CONTINUOUS
100
AcDbLine
 10
129.8896220000000028
 20
-128.2149399999999844
 30
0
 11
129.794384000000008
 21
-128.1197019999999895
 31
0
  0
LINE
  5
AE
330
1A
100
AcDbEntity
  8
BLACK
  6
CONTINUOUS
100
AcDbLine
 10
129.794384000000008
 20
-128.1197019999999895
 30
0
 11
129.8896220000000028
 21
-128.0244629999999972
 31
0
  0
LINE
  5
AF
330
1A
100
AcDbEntity
  8
BLACK
  6
CONTINUOUS
100
AcDbLine
 10
129.8896220000000028
 20
-128.0244629999999972
 30
0
 11
129.8896220000000028
 21
-128.2149399999999844
 31
0
  0
LINE
  5
B0
330
1A
100
AcDbEntity
  8
BLACK
  6
CONTINUOUS
100
AcDbLine
 10
129.8896220000000028
 20
-126.9768439999999998
 30
0
 11
129.9848599999999976
 21
-127.0720819999999947
 31
0
  0
LINE
  5
B1
330
1A
100
AcDbEntity
  8
BLACK
  6
CONTINUOUS
100
AcDbLine
 10
129.9848599999999976
 20
-127.0720819999999947
 30
0
 11
129.8896220000000028
 21
-127.1673210000000012
 31
0
  0
LINE
  5
B2
330
1A
100
AcDbEntity
  8
BLACK
  6
CONTINUOUS
100
AcDbLine
 10
129.8896220000000028
 20
-127.1673210000000012
 30
0
 11
129.794384000000008
 21
-127.0720819999999947
 31
0
  0
LINE
  5
B3
330
1A
100
AcDbEntity
  8
BLACK
  6
CONTINUOUS
100
AcDbLine
 10
129.794384000000008
 20
-127.0720819999999947
 30
0
 11
129.8896220000000028
 21
-126.9768439999999998
 31
0
  0
LINE
  5
B4
330
1A
100
AcDbEntity
  8
BLACK
  6
CONTINUOUS
100
AcDbLine
 10
129.8896220000000028
 20
-126.9768439999999998
 30
0
 11
129.8896220000000028
 21
-127.1673210000000012
 31
0
  0
LINE
  5
B5
330
1A
100
AcDbEntity
  8
BLACK
  6
CONTINUOUS
100
AcDbLine
 10
112.8675679999999915
 20
-131.150102000000004
 30
0
 11
113.5675679999999943
 21
-131.8501019999999926
 31
0
  0
LINE
  5
B6
330
1A
100
AcDbEntity
  8
BLACK
  6
CONTINUOUS
100
AcDbLine
 10
113.5675679999999943
 20
-131.150102000000004
 30
0
 11
112.8675679999999915
 21
-131.8501019999999926
 31
0
  0
LINE
  5
B7
330
1A
100
AcDbEntity
  8
BLACK
  6
CONTINUOUS
100
AcDbLine
 10
116.556287999999995
 20
-130.4149400000000014
 30
0
 11
116.7467649999999963
 21
-130.4149400000000014
 31
0
  0
LINE
  5
B8
330
1A
100
AcDbEntity
  8
BLACK
  6
CONTINUOUS
100
AcDbLine
 10
116.7467649999999963
 20
-130.4149400000000014
 30
0
 11
116.9372410000000002
 21
-130.5101779999999962
 31
0
  0
LINE
  5
B9
330
1A
100
AcDbEntity
  8
BLACK
  6
CONTINUOUS
100
AcDbLine
 10
116.9372410000000002
 20
-130.5101779999999962
 30
0
 11
117.032478999999995
 21
-130.6054159999999911
 31
0
  0
LINE
  5
BA
330
1A
100
AcDbEntity
  8
BLACK
  6
CONTINUOUS
100
AcDbLine
 10
117.032478999999995
 20
-130.6054159999999911
 30
0
 11
117.1277169999999899
 21
-130.7958919999999807
 31
0
  0
LINE
  5
BB
330
1A
100
AcDbEntity
  8
BLACK
  6
CONTINUOUS
100
AcDbLine
 10
117.1277169999999899
 20
-130.7958919999999807
 30
0
 11
117.2229549999999989
 21
-131.1768439999999885
 31
0
  0
LINE
  5
BC
330
1A
100
AcDbEntity
  8
BLACK
  6
CONTINUOUS
100
AcDbLine
 10
117.2229549999999989
 20
-131.1768439999999885
 30
0
 11
117.2229549999999989
 21
-131.6530349999999885
 31
0
  0
LINE
  5
BD
330
1A
100
AcDbEntity
  8
BLACK
  6
CONTINUOUS
100
AcDbLine
 10
117.2229549999999989
 20
-131.6530349999999885
 30
0
 11
117.1277169999999899
 21
-132.0339869999999962
 31
0
  0
LINE
  5
BE
330
1A
100
AcDbEntity
  8
BLACK
  6
CONTINUOUS
100
AcDbLine
 10
117.1277169999999899
 20
-132.0339869999999962
 30
0
 11
117.032478999999995
 21
-132.2244629999999859
 31
0
  0
LINE
  5
BF
330
1A
100
AcDbEntity
  8
BLACK
  6
CONTINUOUS
100
AcDbLine
 10
117.032478999999995
 20
-132.2244629999999859
 30
0
 11
116.9372410000000002
 21
-132.3197020000000066
 31
0
  0
LINE
  5
C0
330
1A
100
AcDbEntity
  8
BLACK
  6
CONTINUOUS
100
AcDbLine
 10
116.9372410000000002
 20
-132.3197020000000066
 30
0
 11
116.7467649999999963
 21
-132.4149400000000014
 31
0
  0
LINE
  5
C1
330
1A
100
AcDbEntity
  8
BLACK
  6
CONTINUOUS
100
AcDbLine
 10
116.7467649999999963
 20
-132.4149400000000014
 30
0
 11
116.556287999999995
 21
-132.4149400000000014
 31
0
  0
LINE
  5
C2
330
1A
100
AcDbEntity
  8
BLACK
  6
CONTINUOUS
100
AcDbLine
 10
116.556287999999995
 20
-132.4149400000000014
 30
0
 11
116.3658119999999911
 21
-132.3197020000000066
 31
0
  0
LINE
  5
C3
330
1A
100
AcDbEntity
  8
BLACK
  6
CONTINUOUS
100
AcDbLine
 10
116.3658119999999911
 20
-132.3197020000000066
 30
0
 11
116.2705739999999963
 21
-132.2244629999999859
 31
0
  0
LINE
  5
C4
330
1A
100
AcDbEntity
  8
BLACK
  6
CONTINUOUS
100
AcDbLine
 10
116.2705739999999963
 20
-132.2244629999999859
 30
0
 11
116.1753360000000015
 21
-132.0339869999999962
 31
0
  0
LINE
  5
C5
330
1A
100
AcDbEntity
  8
BLACK
  6
CONTINUOUS
100
AcDbLine
 10
116.1753360000000015
 20
-132.0339869999999962
 30
0
 11
116.0800979999999925
 21
-131.6530349999999885
 31
0
  0
LINE
  5
C6
330
1A
100
AcDbEntity
  8
BLACK
  6
CONTINUOUS
100
AcDbLine
 10
116.0800979999999925
 20
-131.6530349999999885
 30
0
 11
116.0800979999999925
 21
-131.1768439999999885
 31
0
  0
LINE
  5
C7
330
1A
100
AcDbEntity
  8
BLACK
  6
CONTINUOUS
100
AcDbLine
 10
116.0800979999999925
 20
-131.1768439999999885
 30
0
 11
116.1753360000000015
 21
-130.7958919999999807
 31
0
  0
LINE
  5
C8
330
1A
100
AcDbEntity
  8
BLACK
  6
CONTINUOUS
100
AcDbLine
 10
116.1753360000000015
 20
-130.7958919999999807
 30
0
 11
116.2705739999999963
 21
-130.6054159999999911
 31
0
  0
LINE
  5
C9
330
1A
100
AcDbEntity
  8
BLACK
  6
CONTINUOUS
100
AcDbLine
 10
116.2705739999999963
 20
-130.6054159999999911
 30
0
 11
116.3658119999999911
 21
-130.5101779999999962
 31
0
  0
LINE
  5
CA
330
1A
100
AcDbEntity
  8
BLACK
  6
CONTINUOUS
100
AcDbLine
 10
116.3658119999999911
 20
-130.5101779999999962
 30
0
 11
116.556287999999995
 21
-130.4149400000000014
 31
0
  0
LINE
  5
CB
330
1A
100
AcDbEntity
  8
BLACK
  6
CONTINUOUS
100
AcDbLine
 10
118.0800979999999925
 20
-132.2244629999999859
 30
0
 11
118.1753360000000015
 21
-132.3197020000000066
 31
0
  0
LINE
  5
CC
330
1A
100
AcDbEntity
  8
BLACK
  6
CONTINUOUS
100
AcDbLine
 10
118.1753360000000015
 20
-132.3197020000000066
 30
0
 11
118.0800979999999925
 21
-132.4149400000000014
 31
0
  0
LINE
  5
CD
330
1A
100
AcDbEntity
  8
BLACK
  6
CONTINUOUS
100
AcDbLine
 10
118.0800979999999925
 20
-132.4149400000000014
 30
0
 11
117.9848599999999976
 21
-132.3197020000000066
 31
0
  0
LINE
  5
CE
330
1A
100
AcDbEntity
  8
BLACK
  6
CONTINUOUS
100
AcDbLine
 10
117.9848599999999976
 20
-132.3197020000000066
 30
0
 11
118.0800979999999925
 21
-132.2244629999999859
 31
0
  0
LINE
  5
CF
330
1A
100
AcDbEntity
  8
BLACK
  6
CONTINUOUS
100
AcDbLine
 10
118.0800979999999925
 20
-132.2244629999999859
 30
0
 11
118.0800979999999925
 21
-132.4149400000000014
 31
0
  0
LINE
  5
D0
330
1A
100
AcDbEntity
  8
BLACK
  6
CONTINUOUS
100
AcDbLine
 10
118.8420029999999912
 20
-130.4149400000000014
 30
0
 11
120.1753360000000015
 21
-130.4149400000000014
 31
0
  0
LINE
  5
D1
330
1A
100
AcDbEntity
  8
BLACK
  6
CONTINUOUS
100
AcDbLine
 10
120.1753360000000015
 20
-130.4149400000000014
 30
0
 11
119.3181929999999937
 21
-132.4149400000000014
 31
0
  0
LINE
  5
D2
330
1A
100
AcDbEntity
  8
BLACK
  6
CONTINUOUS
100
AcDbLine
 10
121.3181929999999937
 20
-130.4149400000000014
 30
0
 11
121.5086699999999951
 21
-130.4149400000000014
 31
0
  0
LINE
  5
D3
330
1A
100
AcDbEntity
  8
BLACK
  6
CONTINUOUS
100
AcDbLine
 10
121.5086699999999951
 20
-130.4149400000000014
 30
0
 11
121.6991459999999989
 21
-130.5101779999999962
 31
0
  0
LINE
  5
D4
330
1A
100
AcDbEntity
  8
BLACK
  6
CONTINUOUS
100
AcDbLine
 10
121.6991459999999989
 20
-130.5101779999999962
 30
0
 11
121.7943839999999938
 21
-130.6054159999999911
 31
0
  0
LINE
  5
D5
330
1A
100
AcDbEntity
  8
BLACK
  6
CONTINUOUS
100
AcDbLine
 10
121.7943839999999938
 20
-130.6054159999999911
 30
0
 11
121.8896219999999886
 21
-130.7958919999999807
 31
0
  0
LINE
  5
D6
330
1A
100
AcDbEntity
  8
BLACK
  6
CONTINUOUS
100
AcDbLine
 10
121.8896219999999886
 20
-130.7958919999999807
 30
0
 11
121.9848599999999976
 21
-131.1768439999999885
 31
0
  0
LINE
  5
D7
330
1A
100
AcDbEntity
  8
BLACK
  6
CONTINUOUS
100
AcDbLine
 10
121.9848599999999976
 20
-131.1768439999999885
 30
0
 11
121.9848599999999976
 21
-131.6530349999999885
 31
0
  0
LINE
  5
D8
330
1A
100
AcDbEntity
  8
BLACK
  6
CONTINUOUS
100
AcDbLine
 10
121.9848599999999976
 20
-131.6530349999999885
 30
0
 11
121.8896219999999886
 21
-132.0339869999999962
 31
0
  0
LINE
  5
D9
330
1A
100
AcDbEntity
  8
BLACK
  6
CONTINUOUS
100
AcDbLine
 10
121.8896219999999886
 20
-132.0339869999999962
 30
0
 11
121.7943839999999938
 21
-132.2244629999999859
 31
0
  0
LINE
  5
DA
330
1A
100
AcDbEntity
  8
BLACK
  6
CONTINUOUS
100
AcDbLine
 10
121.7943839999999938
 20
-132.2244629999999859
 30
0
 11
121.6991459999999989
 21
-132.3197020000000066
 31
0
  0
LINE
  5
DB
330
1A
100
AcDbEntity
  8
BLACK
  6
CONTINUOUS
100
AcDbLine
 10
121.6991459999999989
 20
-132.3197020000000066
 30
0
 11
121.5086699999999951
 21
-132.4149400000000014
 31
0
  0
LINE
  5
DC
330
1A
100
AcDbEntity
  8
BLACK
  6
CONTINUOUS
100
AcDbLine
 10
121.5086699999999951
 20
-132.4149400000000014
 30
0
 11
121.3181929999999937
 21
-132.4149400000000014
 31
0
  0
LINE
  5
DD
330
1A
100
AcDbEntity
  8
BLACK
  6
CONTINUOUS
100
AcDbLine
 10
121.3181929999999937
 20
-132.4149400000000014
 30
0
 11
121.1277169999999899
 21
-132.3197020000000066
 31
0
  0
LINE
  5
DE
330
1A
100
AcDbEntity
  8
BLACK
  6
CONTINUOUS
100
AcDbLine
 10
121.1277169999999899
 20
-132.3197020000000066
 30
0
 11
121.032478999999995
 21
-132.2244629999999859
 31
0
  0
LINE
  5
DF
330
1A
100
AcDbEntity
  8
BLACK
  6
CONTINUOUS
100
AcDbLine
 10
121.032478999999995
 20
-132.2244629999999859
 30
0
 11
120.9372410000000002
 21
-132.0339869999999962
 31
0
  0
LINE
  5
E0
330
1A
100
AcDbEntity
  8
BLACK
  6
CONTINUOUS
100
AcDbLine
 10
120.9372410000000002
 20
-132.0339869999999962
 30
0
 11
120.8420029999999912
 21
-131.6530349999999885
 31
0
  0
LINE
  5
E1
330
1A
100
AcDbEntity
  8
BLACK
  6
CONTINUOUS
100
AcDbLine
 10
120.8420029999999912
 20
-131.6530349999999885
 30
0
 11
120.8420029999999912
 21
-131.1768439999999885
 31
0
  0
LINE
  5
E2
330
1A
100
AcDbEntity
  8
BLACK
  6
CONTINUOUS
100
AcDbLine
 10
120.8420029999999912
 20
-131.1768439999999885
 30
0
 11
120.9372410000000002
 21
-130.7958919999999807
 31
0
  0
LINE
  5
E3
330
1A
100
AcDbEntity
  8
BLACK
  6
CONTINUOUS
100
AcDbLine
 10
120.9372410000000002
 20
-130.7958919999999807
 30
0
 11
121.032478999999995
 21
-130.6054159999999911
 31
0
  0
LINE
  5
E4
330
1A
100
AcDbEntity
  8
BLACK
  6
CONTINUOUS
100
AcDbLine
 10
121.032478999999995
 20
-130.6054159999999911
 30
0
 11
121.1277169999999899
 21
-130.5101779999999962
 31
0
  0
LINE
  5
E5
330
1A
100
AcDbEntity
  8
BLACK
  6
CONTINUOUS
100
AcDbLine
 10
121.1277169999999899
 20
-130.5101779999999962
 30
0
 11
121.3181929999999937
 21
-130.4149400000000014
 31
0
  0
LINE
  5
E6
330
1A
100
AcDbEntity
  8
BLACK
  6
CONTINUOUS
100
AcDbLine
 10
123.2229549999999989
 20
-130.4149400000000014
 30
0
 11
123.4134320000000002
 21
-130.4149400000000014
 31
0
  0
LINE
  5
E7
330
1A
100
AcDbEntity
  8
BLACK
  6
CONTINUOUS
100
AcDbLine
 10
123.4134320000000002
 20
-130.4149400000000014
 30
0
 11
123.6039079999999899
 21
-130.5101779999999962
 31
0
  0
LINE
  5
E8
330
1A
100
AcDbEntity
  8
BLACK
  6
CONTINUOUS
100
AcDbLine
 10
123.6039079999999899
 20
-130.5101779999999962
 30
0
 11
123.6991459999999989
 21
-130.6054159999999911
 31
0
  0
LINE
  5
E9
330
1A
100
AcDbEntity
  8
BLACK
  6
CONTINUOUS
100
AcDbLine
 10
123.6991459999999989
 20
-130.6054159999999911
 30
0
 11
123.7943839999999938
 21
-130.7958919999999807
 31
0
  0
LINE
  5
EA
330
1A
100
AcDbEntity
  8
BLACK
  6
CONTINUOUS
100
AcDbLine
 10
123.7943839999999938
 20
-130.7958919999999807
 30
0
 11
123.8896219999999886
 21
-131.1768439999999885
 31
0
  0
LINE
  5
EB
330
1A
100
AcDbEntity
  8
BLACK
  6
CONTINUOUS
100
AcDbLine
 10
123.8896219999999886
 20
-131.1768439999999885
 30
0
 11
123.8896219999999886
 21
-131.6530349999999885
 31
0
  0
LINE
  5
EC
330
1A
100
AcDbEntity
  8
BLACK
  6
CONTINUOUS
100
AcDbLine
 10
123.8896219999999886
 20
-131.6530349999999885
 30
0
 11
123.7943839999999938
 21
-132.0339869999999962
 31
0
  0
LINE
  5
ED
330
1A
100
AcDbEntity
  8
BLACK
  6
CONTINUOUS
100
AcDbLine
 10
123.7943839999999938
 20
-132.0339869999999962
 30
0
 11
123.6991459999999989
 21
-132.2244629999999859
 31
0
  0
LINE
  5
EE
330
1A
100
AcDbEntity
  8
BLACK
  6
CONTINUOUS
100
AcDbLine
 10
123.6991459999999989
 20
-132.2244629999999859
 30
0
 11
123.6039079999999899
 21
-132.3197020000000066
 31
0
  0
LINE
  5
EF
330
1A
100
AcDbEntity
  8
BLACK
  6
CONTINUOUS
100
AcDbLine
 10
123.6039079999999899
 20
-132.3197020000000066
 30
0
 11
123.4134320000000002
 21
-132.4149400000000014
 31
0
  0
LINE
  5
F0
330
1A
100
AcDbEntity
  8
BLACK
  6
CONTINUOUS
100
AcDbLine
 10
123.4134320000000002
 20
-132.4149400000000014
 30
0
 11
123.2229549999999989
 21
-132.4149400000000014
 31
0
  0
LINE
  5
F1
330
1A
100
AcDbEntity
  8
BLACK
  6
CONTINUOUS
100
AcDbLine
 10
123.2229549999999989
 20
-132.4149400000000014
 30
0
 11
123.032478999999995
 21
-132.3197020000000066
 31
0
  0
LINE
  5
F2
330
1A
100
AcDbEntity
  8
BLACK
  6
CONTINUOUS
100
AcDbLine
 10
123.032478999999995
 20
-132.3197020000000066
 30
0
 11
122.9372410000000002
 21
-132.2244629999999859
 31
0
  0
LINE
  5
F3
330
1A
100
AcDbEntity
  8
BLACK
  6
CONTINUOUS
100
AcDbLine
 10
122.9372410000000002
 20
-132.2244629999999859
 30
0
 11
122.8420029999999912
 21
-132.0339869999999962
 31
0
  0
LINE
  5
F4
330
1A
100
AcDbEntity
  8
BLACK
  6
CONTINUOUS
100
AcDbLine
 10
122.8420029999999912
 20
-132.0339869999999962
 30
0
 11
122.7467649999999963
 21
-131.6530349999999885
 31
0
  0
LINE
  5
F5
330
1A
100
AcDbEntity
  8
BLACK
  6
CONTINUOUS
100
AcDbLine
 10
122.7467649999999963
 20
-131.6530349999999885
 30
0
 11
122.7467649999999963
 21
-131.1768439999999885
 31
0
  0
LINE
  5
F6
330
1A
100
AcDbEntity
  8
BLACK
  6
CONTINUOUS
100
AcDbLine
 10
122.7467649999999963
 20
-131.1768439999999885
 30
0
 11
122.8420029999999912
 21
-130.7958919999999807
 31
0
  0
LINE
  5
F7
330
1A
100
AcDbEntity
  8
BLACK
  6
CONTINUOUS
100
AcDbLine
 10
122.8420029999999912
 20
-130.7958919999999807
 30
0
 11
122.9372410000000002
 21
-130.6054159999999911
 31
0
  0
LINE
  5
F8
330
1A
100
AcDbEntity
  8
BLACK
  6
CONTINUOUS
100
AcDbLine
 10
122.9372410000000002
 20
-130.6054159999999911
 30
0
 11
123.032478999999995
 21
-130.5101779999999962
 31
0
  0
LINE
  5
F9
330
1A
100
AcDbEntity
  8
BLACK
  6
CONTINUOUS
100
AcDbLine
 10
123.032478999999995
 20
-130.5101779999999962
 30
0
 11
123.2229549999999989
 21
-130.4149400000000014
 31
0
  0
LINE
  5
FA
330
1A
100
AcDbEntity
  8
BLACK
  6
CONTINUOUS
100
AcDbLine
 10
124.7467649999999963
 20
-132.4149400000000014
 30
0
 11
124.7467649999999963
 21
-131.0816059999999936
 31
0
  0
LINE
  5
FB
330
1A
100
AcDbEntity
  8
BLACK
  6
CONTINUOUS
100
AcDbLine
 10
124.7467649999999963
 20
-131.2720819999999833
 30
0
 11
124.8420029999999912
 21
-131.1768439999999885
 31
0
  0
LINE
  5
FC
330
1A
100
AcDbEntity
  8
BLACK
  6
CONTINUOUS
100
AcDbLine
 10
124.8420029999999912
 20
-131.1768439999999885
 30
0
 11
125.032478999999995
 21
-131.0816059999999936
 31
0
  0
LINE
  5
FD
330
1A
100
AcDbEntity
  8
BLACK
  6
CONTINUOUS
100
AcDbLine
 10
125.032478999999995
 20
-131.0816059999999936
 30
0
 11
125.3181939999999912
 21
-131.0816059999999936
 31
0
  0
LINE
  5
FE
330
1A
100
AcDbEntity
  8
BLACK
  6
CONTINUOUS
100
AcDbLine
 10
125.3181939999999912
 20
-131.0816059999999936
 30
0
 11
125.5086699999999951
 21
-131.1768439999999885
 31
0
  0
LINE
  5
FF
330
1A
100
AcDbEntity
  8
BLACK
  6
CONTINUOUS
100
AcDbLine
 10
125.5086699999999951
 20
-131.1768439999999885
 30
0
 11
125.6039079999999899
 21
-131.367321000000004
 31
0
  0
LINE
  5
100
330
1A
100
AcDbEntity
  8
BLACK
  6
CONTINUOUS
100
AcDbLine
 10
125.6039079999999899
 20
-131.367321000000004
 30
0
 11
125.6039079999999899
 21
-132.4149400000000014
 31
0
  0
LINE
  5
101
330
1A
100
AcDbEntity
  8
BLACK
  6
CONTINUOUS
100
AcDbLine
 10
125.6039079999999899
 20
-131.367321000000004
 30
0
 11
125.6991459999999989
 21
-131.1768439999999885
 31
0
  0
LINE
  5
102
330
1A
100
AcDbEntity
  8
BLACK
  6
CONTINUOUS
100
AcDbLine
 10
125.6991459999999989
 20
-131.1768439999999885
 30
0
 11
125.8896219999999886
 21
-131.0816059999999936
 31
0
  0
LINE
  5
103
330
1A
100
AcDbEntity
  8
BLACK
  6
CONTINUOUS
100
AcDbLine
 10
125.8896219999999886
 20
-131.0816059999999936
 30
0
 11
126.1753359999999873
 21
-131.0816059999999936
 31
0
  0
LINE
  5
104
330
1A
100
AcDbEntity
  8
BLACK
  6
CONTINUOUS
100
AcDbLine
 10
126.1753359999999873
 20
-131.0816059999999936
 30
0
 11
126.3658129999999886
 21
-131.1768439999999885
 31
0
  0
LINE
  5
105
330
1A
100
AcDbEntity
  8
BLACK
  6
CONTINUOUS
100
AcDbLine
 10
126.3658129999999886
 20
-131.1768439999999885
 30
0
 11
126.4610509999999977
 21
-131.367321000000004
 31
0
  0
LINE
  5
106
330
1A
100
AcDbEntity
  8
BLACK
  6
CONTINUOUS
100
AcDbLine
 10
126.4610509999999977
 20
-131.367321000000004
 30
0
 11
126.4610509999999977
 21
-132.4149400000000014
 31
0
  0
LINE
  5
107
330
1A
100
AcDbEntity
  8
BLACK
  6
CONTINUOUS
100
AcDbLine
 10
127.4134320000000002
 20
-132.4149400000000014
 30
0
 11
127.4134320000000002
 21
-131.0816059999999936
 31
0
  0
LINE
  5
108
330
1A
100
AcDbEntity
  8
BLACK
  6
CONTINUOUS
100
AcDbLine
 10
127.4134320000000002
 20
-131.2720819999999833
 30
0
 11
127.5086699999999951
 21
-131.1768439999999885
 31
0
  0
LINE
  5
109
330
1A
100
AcDbEntity
  8
BLACK
  6
CONTINUOUS
100
AcDbLine
 10
127.5086699999999951
 20
-131.1768439999999885
 30
0
 11
127.6991459999999989
 21
-131.0816059999999936
 31
0
  0
LINE
  5
10A
330
1A
100
AcDbEntity
  8
BLACK
  6
CONTINUOUS
100
AcDbLine
 10
127.6991459999999989
 20
-131.0816059999999936
 30
0
 11
127.9848609999999951
 21
-131.0816059999999936
 31
0
  0
LINE
  5
10B
330
1A
100
AcDbEntity
  8
BLACK
  6
CONTINUOUS
100
AcDbLine
 10
127.9848609999999951
 20
-131.0816059999999936
 30
0
 11
128.1753369999999848
 21
-131.1768439999999885
 31
0
  0
LINE
  5
10C
330
1A
100
AcDbEntity
  8
BLACK
  6
CONTINUOUS
100
AcDbLine
 10
128.1753369999999848
 20
-131.1768439999999885
 30
0
 11
128.270575000000008
 21
-131.367321000000004
 31
0
  0
LINE
  5
10D
330
1A
100
AcDbEntity
  8
BLACK
  6
CONTINUOUS
100
AcDbLine
 10
128.270575000000008
 20
-131.367321000000004
 30
0
 11
128.270575000000008
 21
-132.4149400000000014
 31
0
  0
LINE
  5
10E
330
1A
100
AcDbEntity
  8
BLACK
  6
CONTINUOUS
100
AcDbLine
 10
128.270575000000008
 20
-131.367321000000004
 30
0
 11
128.3658130000000028
 21
-131.1768439999999885
 31
0
  0
LINE
  5
10F
330
1A
100
AcDbEntity
  8
BLACK
  6
CONTINUOUS
100
AcDbLine
 10
128.3658130000000028
 20
-131.1768439999999885
 30
0
 11
128.5562889999999925
 21
-131.0816059999999936
 31
0
  0
LINE
  5
110
330
1A
100
AcDbEntity
  8
BLACK
  6
CONTINUOUS
100
AcDbLine
 10
128.5562889999999925
 20
-131.0816059999999936
 30
0
 11
128.8420030000000054
 21
-131.0816059999999936
 31
0
  0
LINE
  5
111
330
1A
100
AcDbEntity
  8
BLACK
  6
CONTINUOUS
100
AcDbLine
 10
128.8420030000000054
 20
-131.0816059999999936
 30
0
 11
129.0324799999999925
 21
-131.1768439999999885
 31
0
  0
LINE
  5
112
330
1A
100
AcDbEntity
  8
BLACK
  6
CONTINUOUS
100
AcDbLine
 10
129.0324799999999925
 20
-131.1768439999999885
 30
0
 11
129.1277179999999873
 21
-131.367321000000004
 31
0
  0
LINE
  5
113
330
1A
100
AcDbEntity
  8
BLACK
  6
CONTINUOUS
100
AcDbLine
 10
129.1277179999999873
 20
-131.367321000000004
 30
0
 11
129.1277179999999873
 21
-132.4149400000000014
 31
0
  0
LINE
  5
114
330
1A
100
AcDbEntity
  8
BLACK
  6
CONTINUOUS
100
AcDbLine
 10
133.0324799999999925
 20
-130.3197020000000066
 30
0
 11
131.3181950000000029
 21
-132.891130000000004
 31
0
  0
LINE
  5
115
330
1A
100
AcDbEntity
  8
BLACK
  6
CONTINUOUS
100
AcDbLine
 10
135.6039089999999874
 20
-130.4149400000000014
 30
0
 11
135.7943860000000029
 21
-130.4149400000000014
 31
0
  0
LINE
  5
116
330
1A
100
AcDbEntity
  8
BLACK
  6
CONTINUOUS
100
AcDbLine
 10
135.7943860000000029
 20
-130.4149400000000014
 30
0
 11
135.9848619999999926
 21
-130.5101779999999962
 31
0
  0
LINE
  5
117
330
1A
100
AcDbEntity
  8
BLACK
  6
CONTINUOUS
100
AcDbLine
 10
135.9848619999999926
 20
-130.5101779999999962
 30
0
 11
136.0800999999999874
 21
-130.6054159999999911
 31
0
  0
LINE
  5
118
330
1A
100
AcDbEntity
  8
BLACK
  6
CONTINUOUS
100
AcDbLine
 10
136.0800999999999874
 20
-130.6054159999999911
 30
0
 11
136.1753379999999822
 21
-130.7958919999999807
 31
0
  0
LINE
  5
119
330
1A
100
AcDbEntity
  8
BLACK
  6
CONTINUOUS
100
AcDbLine
 10
136.1753379999999822
 20
-130.7958919999999807
 30
0
 11
136.2705760000000055
 21
-131.1768439999999885
 31
0
  0
LINE
  5
11A
330
1A
100
AcDbEntity
  8
BLACK
  6
CONTINUOUS
100
AcDbLine
 10
136.2705760000000055
 20
-131.1768439999999885
 30
0
 11
136.2705760000000055
 21
-131.6530349999999885
 31
0
  0
LINE
  5
11B
330
1A
100
AcDbEntity
  8
BLACK
  6
CONTINUOUS
100
AcDbLine
 10
136.2705760000000055
 20
-131.6530349999999885
 30
0
 11
136.1753379999999822
 21
-132.0339869999999962
 31
0
  0
LINE
  5
11C
330
1A
100
AcDbEntity
  8
BLACK
  6
CONTINUOUS
100
AcDbLine
 10
136.1753379999999822
 20
-132.0339869999999962
 30
0
 11
136.0800999999999874
 21
-132.2244629999999859
 31
0
  0
LINE
  5
11D
330
1A
100
AcDbEntity
  8
BLACK
  6
CONTINUOUS
100
AcDbLine
 10
136.0800999999999874
 20
-132.2244629999999859
 30
0
 11
135.9848619999999926
 21
-132.3197020000000066
 31
0
  0
LINE
  5
11E
330
1A
100
AcDbEntity
  8
BLACK
  6
CONTINUOUS
100
AcDbLine
 10
135.9848619999999926
 20
-132.3197020000000066
 30
0
 11
135.7943860000000029
 21
-132.4149400000000014
 31
0
  0
LINE
  5
11F
330
1A
100
AcDbEntity
  8
BLACK
  6
CONTINUOUS
100
AcDbLine
 10
135.7943860000000029
 20
-132.4149400000000014
 30
0
 11
135.6039089999999874
 21
-132.4149400000000014
 31
0
  0
LINE
  5
120
330
1A
100
AcDbEntity
  8
BLACK
  6
CONTINUOUS
100
AcDbLine
 10
135.6039089999999874
 20
-132.4149400000000014
 30
0
 11
135.4134329999999977
 21
-132.3197020000000066
 31
0
  0
LINE
  5
121
330
1A
100
AcDbEntity
  8
BLACK
  6
CONTINUOUS
100
AcDbLine
 10
135.4134329999999977
 20
-132.3197020000000066
 30
0
 11
135.3181950000000029
 21
-132.2244629999999859
 31
0
  0
LINE
  5
122
330
1A
100
AcDbEntity
  8
BLACK
  6
CONTINUOUS
100
AcDbLine
 10
135.3181950000000029
 20
-132.2244629999999859
 30
0
 11
135.2229570000000081
 21
-132.0339869999999962
 31
0
  0
LINE
  5
123
330
1A
100
AcDbEntity
  8
BLACK
  6
CONTINUOUS
100
AcDbLine
 10
135.2229570000000081
 20
-132.0339869999999962
 30
0
 11
135.1277189999999848
 21
-131.6530349999999885
 31
0
  0
LINE
  5
124
330
1A
100
AcDbEntity
  8
BLACK
  6
CONTINUOUS
100
AcDbLine
 10
135.1277189999999848
 20
-131.6530349999999885
 30
0
 11
135.1277189999999848
 21
-131.1768439999999885
 31
0
  0
LINE
  5
125
330
1A
100
AcDbEntity
  8
BLACK
  6
CONTINUOUS
100
AcDbLine
 10
135.1277189999999848
 20
-131.1768439999999885
 30
0
 11
135.2229570000000081
 21
-130.7958919999999807
 31
0
  0
LINE
  5
126
330
1A
100
AcDbEntity
  8
BLACK
  6
CONTINUOUS
100
AcDbLine
 10
135.2229570000000081
 20
-130.7958919999999807
 30
0
 11
135.3181950000000029
 21
-130.6054159999999911
 31
0
  0
LINE
  5
127
330
1A
100
AcDbEntity
  8
BLACK
  6
CONTINUOUS
100
AcDbLine
 10
135.3181950000000029
 20
-130.6054159999999911
 30
0
 11
135.4134329999999977
 21
-130.5101779999999962
 31
0
  0
LINE
  5
128
330
1A
100
AcDbEntity
  8
BLACK
  6
CONTINUOUS
100
AcDbLine
 10
135.4134329999999977
 20
-130.5101779999999962
 30
0
 11
135.6039089999999874
 21
-130.4149400000000014
 31
0
  0
LINE
  5
129
330
1A
100
AcDbEntity
  8
BLACK
  6
CONTINUOUS
100
AcDbLine
 10
137.1277189999999848
 20
-132.2244629999999859
 30
0
 11
137.2229569999999796
 21
-132.3197020000000066
 31
0
  0
LINE
  5
12A
330
1A
100
AcDbEntity
  8
BLACK
  6
CONTINUOUS
100
AcDbLine
 10
137.2229569999999796
 20
-132.3197020000000066
 30
0
 11
137.1277189999999848
 21
-132.4149400000000014
 31
0
  0
LINE
  5
12B
330
1A
100
AcDbEntity
  8
BLACK
  6
CONTINUOUS
100
AcDbLine
 10
137.1277189999999848
 20
-132.4149400000000014
 30
0
 11
137.03248099999999
 21
-132.3197020000000066
 31
0
  0
LINE
  5
12C
330
1A
100
AcDbEntity
  8
BLACK
  6
CONTINUOUS
100
AcDbLine
 10
137.03248099999999
 20
-132.3197020000000066
 30
0
 11
137.1277189999999848
 21
-132.2244629999999859
 31
0
  0
LINE
  5
12D
330
1A
100
AcDbEntity
  8
BLACK
  6
CONTINUOUS
100
AcDbLine
 10
137.1277189999999848
 20
-132.2244629999999859
 30
0
 11
137.1277189999999848
 21
-132.4149400000000014
 31
0
  0
LINE
  5
12E
330
1A
100
AcDbEntity
  8
BLACK
  6
CONTINUOUS
100
AcDbLine
 10
138.4610519999999951
 20
-130.4149400000000014
 30
0
 11
138.6515289999999823
 21
-130.4149400000000014
 31
0
  0
LINE
  5
12F
330
1A
100
AcDbEntity
  8
BLACK
  6
CONTINUOUS
100
AcDbLine
 10
138.6515289999999823
 20
-130.4149400000000014
 30
0
 11
138.8420050000000003
 21
-130.5101779999999962
 31
0
  0
LINE
  5
130
330
1A
100
AcDbEntity
  8
BLACK
  6
CONTINUOUS
100
AcDbLine
 10
138.8420050000000003
 20
-130.5101779999999962
 30
0
 11
138.9372429999999952
 21
-130.6054159999999911
 31
0
  0
LINE
  5
131
330
1A
100
AcDbEntity
  8
BLACK
  6
CONTINUOUS
100
AcDbLine
 10
138.9372429999999952
 20
-130.6054159999999911
 30
0
 11
139.03248099999999
 21
-130.7958919999999807
 31
0
  0
LINE
  5
132
330
1A
100
AcDbEntity
  8
BLACK
  6
CONTINUOUS
100
AcDbLine
 10
139.03248099999999
 20
-130.7958919999999807
 30
0
 11
139.1277189999999848
 21
-131.1768439999999885
 31
0
  0
LINE
  5
133
330
1A
100
AcDbEntity
  8
BLACK
  6
CONTINUOUS
100
AcDbLine
 10
139.1277189999999848
 20
-131.1768439999999885
 30
0
 11
139.1277189999999848
 21
-131.6530349999999885
 31
0
  0
LINE
  5
134
330
1A
100
AcDbEntity
  8
BLACK
  6
CONTINUOUS
100
AcDbLine
 10
139.1277189999999848
 20
-131.6530349999999885
 30
0
 11
139.03248099999999
 21
-132.0339869999999962
 31
0
  0
LINE
  5
135
330
1A
100
AcDbEntity
  8
BLACK
  6
CONTINUOUS
100
AcDbLine
 10
139.03248099999999
 20
-132.0339869999999962
 30
0
 11
138.9372429999999952
 21
-132.2244629999999859
 31
0
  0
LINE
  5
136
330
1A
100
AcDbEntity
  8
BLACK
  6
CONTINUOUS
100
AcDbLine
 10
138.9372429999999952
 20
-132.2244629999999859
 30
0
 11
138.8420050000000003
 21
-132.3197020000000066
 31
0
  0
LINE
  5
137
330
1A
100
AcDbEntity
  8
BLACK
  6
CONTINUOUS
100
AcDbLine
 10
138.8420050000000003
 20
-132.3197020000000066
 30
0
 11
138.6515289999999823
 21
-132.4149400000000014
 31
0
  0
LINE
  5
138
330
1A
100
AcDbEntity
  8
BLACK
  6
CONTINUOUS
100
AcDbLine
 10
138.6515289999999823
 20
-132.4149400000000014
 30
0
 11
138.4610519999999951
 21
-132.4149400000000014
 31
0
  0
LINE
  5
139
330
1A
100
AcDbEntity
  8
BLACK
  6
CONTINUOUS
100
AcDbLine
 10
138.4610519999999951
 20
-132.4149400000000014
 30
0
 11
138.2705760000000055
 21
-132.3197020000000066
 31
0
  0
LINE
  5
13A
330
1A
100
AcDbEntity
  8
BLACK
  6
CONTINUOUS
100
AcDbLine
 10
138.2705760000000055
 20
-132.3197020000000066
 30
0
 11
138.1753379999999822
 21
-132.2244629999999859
 31
0
  0
LINE
  5
13B
330
1A
100
AcDbEntity
  8
BLACK
  6
CONTINUOUS
100
AcDbLine
 10
138.1753379999999822
 20
-132.2244629999999859
 30
0
 11
138.0800999999999874
 21
-132.0339869999999962
 31
0
  0
LINE
  5
13C
330
1A
100
AcDbEntity
  8
BLACK
  6
CONTINUOUS
100
AcDbLine
 10
138.0800999999999874
 20
-132.0339869999999962
 30
0
 11
137.9848619999999926
 21
-131.6530349999999885
 31
0
  0
LINE
  5
13D
330
1A
100
AcDbEntity
  8
BLACK
  6
CONTINUOUS
100
AcDbLine
 10
137.9848619999999926
 20
-131.6530349999999885
 30
0
 11
137.9848619999999926
 21
-131.1768439999999885
 31
0
  0
LINE
  5
13E
330
1A
100
AcDbEntity
  8
BLACK
  6
CONTINUOUS
100
AcDbLine
 10
137.9848619999999926
 20
-131.1768439999999885
 30
0
 11
138.0800999999999874
 21
-130.7958919999999807
 31
0
  0
LINE
  5
13F
330
1A
100
AcDbEntity
  8
BLACK
  6
CONTINUOUS
100
AcDbLine
 10
138.0800999999999874
 20
-130.7958919999999807
 30
0
 11
138.1753379999999822
 21
-130.6054159999999911
 31
0
  0
LINE
  5
140
330
1A
100
AcDbEntity
  8
BLACK
  6
CONTINUOUS
100
AcDbLine
 10
138.1753379999999822
 20
-130.6054159999999911
 30
0
 11
138.2705760000000055
 21
-130.5101779999999962
 31
0
  0
LINE
  5
141
330
1A
100
AcDbEntity
  8
BLACK
  6
CONTINUOUS
100
AcDbLine
 10
138.2705760000000055
 20
-130.5101779999999962
 30
0
 11
138.4610519999999951
 21
-130.4149400000000014
 31
0
  0
LINE
  5
142
330
1A
100
AcDbEntity
  8
BLACK
  6
CONTINUOUS
100
AcDbLine
 10
139.8896239999999977
 20
-130.6054159999999911
 30
0
 11
139.9848619999999926
 21
-130.5101779999999962
 31
0
  0
LINE
  5
143
330
1A
100
AcDbEntity
  8
BLACK
  6
CONTINUOUS
100
AcDbLine
 10
139.9848619999999926
 20
-130.5101779999999962
 30
0
 11
140.1753379999999822
 21
-130.4149400000000014
 31
0
  0
LINE
  5
144
330
1A
100
AcDbEntity
  8
BLACK
  6
CONTINUOUS
100
AcDbLine
 10
140.1753379999999822
 20
-130.4149400000000014
 30
0
 11
140.6515289999999823
 21
-130.4149400000000014
 31
0
  0
LINE
  5
145
330
1A
100
AcDbEntity
  8
BLACK
  6
CONTINUOUS
100
AcDbLine
 10
140.6515289999999823
 20
-130.4149400000000014
 30
0
 11
140.8420050000000003
 21
-130.5101779999999962
 31
0
  0
LINE
  5
146
330
1A
100
AcDbEntity
  8
BLACK
  6
CONTINUOUS
100
AcDbLine
 10
140.8420050000000003
 20
-130.5101779999999962
 30
0
 11
140.9372429999999952
 21
-130.6054159999999911
 31
0
  0
LINE
  5
147
330
1A
100
AcDbEntity
  8
BLACK
  6
CONTINUOUS
100
AcDbLine
 10
140.9372429999999952
 20
-130.6054159999999911
 30
0
 11
141.03248099999999
 21
-130.7958919999999807
 31
0
  0
LINE
  5
148
330
1A
100
AcDbEntity
  8
BLACK
  6
CONTINUOUS
100
AcDbLine
 10
141.03248099999999
 20
-130.7958919999999807
 30
0
 11
141.03248099999999
 21
-130.9863679999999988
 31
0
  0
LINE
  5
149
330
1A
100
AcDbEntity
  8
BLACK
  6
CONTINUOUS
100
AcDbLine
 10
141.03248099999999
 20
-130.9863679999999988
 30
0
 11
140.9372429999999952
 21
-131.2720819999999833
 31
0
  0
LINE
  5
14A
330
1A
100
AcDbEntity
  8
BLACK
  6
CONTINUOUS
100
AcDbLine
 10
140.9372429999999952
 20
-131.2720819999999833
 30
0
 11
139.7943860000000029
 21
-132.4149400000000014
 31
0
  0
LINE
  5
14B
330
1A
100
AcDbEntity
  8
BLACK
  6
CONTINUOUS
100
AcDbLine
 10
139.7943860000000029
 20
-132.4149400000000014
 30
0
 11
141.03248099999999
 21
-132.4149400000000014
 31
0
  0
LINE
  5
14C
330
1A
100
AcDbEntity
  8
BLACK
  6
CONTINUOUS
100
AcDbLine
 10
141.6991479999999797
 20
-130.4149400000000014
 30
0
 11
143.03248099999999
 21
-130.4149400000000014
 31
0
  0
LINE
  5
14D
330
1A
100
AcDbEntity
  8
BLACK
  6
CONTINUOUS
100
AcDbLine
 10
143.03248099999999
 20
-130.4149400000000014
 30
0
 11
142.1753379999999822
 21
-132.4149400000000014
 31
0
  0
LINE
  5
14E
330
1A
100
AcDbEntity
  8
BLACK
  6
CONTINUOUS
100
AcDbLine
 10
144.6515289999999823
 20
-130.4149400000000014
 30
0
 11
144.2705760000000055
 21
-130.4149400000000014
 31
0
  0
LINE
  5
14F
330
1A
100
AcDbEntity
  8
BLACK
  6
CONTINUOUS
100
AcDbLine
 10
144.2705760000000055
 20
-130.4149400000000014
 30
0
 11
144.0800999999999874
 21
-130.5101779999999962
 31
0
  0
LINE
  5
150
330
1A
100
AcDbEntity
  8
BLACK
  6
CONTINUOUS
100
AcDbLine
 10
144.0800999999999874
 20
-130.5101779999999962
 30
0
 11
143.9848619999999926
 21
-130.6054159999999911
 31
0
  0
LINE
  5
151
330
1A
100
AcDbEntity
  8
BLACK
  6
CONTINUOUS
100
AcDbLine
 10
143.9848619999999926
 20
-130.6054159999999911
 30
0
 11
143.7943860000000029
 21
-130.891130000000004
 31
0
  0
LINE
  5
152
330
1A
100
AcDbEntity
  8
BLACK
  6
CONTINUOUS
100
AcDbLine
 10
143.7943860000000029
 20
-130.891130000000004
 30
0
 11
143.6991479999999797
 21
-131.2720819999999833
 31
0
  0
LINE
  5
153
330
1A
100
AcDbEntity
  8
BLACK
  6
CONTINUOUS
100
AcDbLine
 10
143.6991479999999797
 20
-131.2720819999999833
 30
0
 11
143.6991479999999797
 21
-132.0339869999999962
 31
0
  0
LINE
  5
154
330
1A
100
AcDbEntity
  8
BLACK
  6
CONTINUOUS
100
AcDbLine
 10
143.6991479999999797
 20
-132.0339869999999962
 30
0
 11
143.7943860000000029
 21
-132.2244629999999859
 31
0
  0
LINE
  5
155
330
1A
100
AcDbEntity
  8
BLACK
  6
CONTINUOUS
100
AcDbLine
 10
143.7943860000000029
 20
-132.2244629999999859
 30
0
 11
143.8896239999999977
 21
-132.3197020000000066
 31
0
  0
LINE
  5
156
330
1A
100
AcDbEntity
  8
BLACK
  6
CONTINUOUS
100
AcDbLine
 10
143.8896239999999977
 20
-132.3197020000000066
 30
0
 11
144.0800999999999874
 21
-132.4149400000000014
 31
0
  0
LINE
  5
157
330
1A
100
AcDbEntity
  8
BLACK
  6
CONTINUOUS
100
AcDbLine
 10
144.0800999999999874
 20
-132.4149400000000014
 30
0
 11
144.4610529999999926
 21
-132.4149400000000014
 31
0
  0
LINE
  5
158
330
1A
100
AcDbEntity
  8
BLACK
  6
CONTINUOUS
100
AcDbLine
 10
144.4610529999999926
 20
-132.4149400000000014
 30
0
 11
144.6515289999999823
 21
-132.3197020000000066
 31
0
  0
LINE
  5
159
330
1A
100
AcDbEntity
  8
BLACK
  6
CONTINUOUS
100
AcDbLine
 10
144.6515289999999823
 20
-132.3197020000000066
 30
0
 11
144.7467670000000055
 21
-132.2244629999999859
 31
0
  0
LINE
  5
15A
330
1A
100
AcDbEntity
  8
BLACK
  6
CONTINUOUS
100
AcDbLine
 10
144.7467670000000055
 20
-132.2244629999999859
 30
0
 11
144.8420050000000003
 21
-132.0339869999999962
 31
0
  0
LINE
  5
15B
330
1A
100
AcDbEntity
  8
BLACK
  6
CONTINUOUS
100
AcDbLine
 10
144.8420050000000003
 20
-132.0339869999999962
 30
0
 11
144.8420050000000003
 21
-131.5577969999999937
 31
0
  0
LINE
  5
15C
330
1A
100
AcDbEntity
  8
BLACK
  6
CONTINUOUS
100
AcDbLine
 10
144.8420050000000003
 20
-131.5577969999999937
 30
0
 11
144.7467670000000055
 21
-131.367321000000004
 31
0
  0
LINE
  5
15D
330
1A
100
AcDbEntity
  8
BLACK
  6
CONTINUOUS
100
AcDbLine
 10
144.7467670000000055
 20
-131.367321000000004
 30
0
 11
144.6515289999999823
 21
-131.2720819999999833
 31
0
  0
LINE
  5
15E
330
1A
100
AcDbEntity
  8
BLACK
  6
CONTINUOUS
100
AcDbLine
 10
144.6515289999999823
 20
-131.2720819999999833
 30
0
 11
144.4610529999999926
 21
-131.1768439999999885
 31
0
  0
LINE
  5
15F
330
1A
100
AcDbEntity
  8
BLACK
  6
CONTINUOUS
100
AcDbLine
 10
144.4610529999999926
 20
-131.1768439999999885
 30
0
 11
144.0800999999999874
 21
-131.1768439999999885
 31
0
  0
LINE
  5
160
330
1A
100
AcDbEntity
  8
BLACK
  6
CONTINUOUS
100
AcDbLine
 10
144.0800999999999874
 20
-131.1768439999999885
 30
0
 11
143.8896239999999977
 21
-131.2720819999999833
 31
0
  0
LINE
  5
161
330
1A
100
AcDbEntity
  8
BLACK
  6
CONTINUOUS
100
AcDbLine
 10
143.8896239999999977
 20
-131.2720819999999833
 30
0
 11
143.7943860000000029
 21
-131.367321000000004
 31
0
  0
LINE
  5
162
330
1A
100
AcDbEntity
  8
BLACK
  6
CONTINUOUS
100
AcDbLine
 10
143.7943860000000029
 20
-131.367321000000004
 30
0
 11
143.6991479999999797
 21
-131.5577969999999937
 31
0
  0
LINE
  5
163
330
1A
100
AcDbEntity
  8
BLACK
  6
CONTINUOUS
100
AcDbLine
 10
145.6039099999999848
 20
-130.4149400000000014
 30
0
 11
145.6039099999999848
 21
-130.7958919999999807
 31
0
  0
LINE
  5
164
330
1A
100
AcDbEntity
  8
BLACK
  6
CONTINUOUS
100
AcDbLine
 10
146.3658149999999978
 20
-130.4149400000000014
 30
0
 11
146.3658149999999978
 21
-130.7958919999999807
 31
0
  0
LINE
  5
165
330
1A
100
AcDbEntity
  8
BLACK
  6
CONTINUOUS
100
AcDbLine
 10
149.3181969999999978
 20
-133.1768439999999885
 30
0
 11
149.2229580000000055
 21
-133.0816059999999936
 31
0
  0
LINE
  5
166
330
1A
100
AcDbEntity
  8
BLACK
  6
CONTINUOUS
100
AcDbLine
 10
149.2229580000000055
 20
-133.0816059999999936
 30
0
 11
149.0324819999999875
 21
-132.7958919999999807
 31
0
  0
LINE
  5
167
330
1A
100
AcDbEntity
  8
BLACK
  6
CONTINUOUS
100
AcDbLine
 10
149.0324819999999875
 20
-132.7958919999999807
 30
0
 11
148.9372439999999926
 21
-132.6054159999999911
 31
0
  0
LINE
  5
168
330
1A
100
AcDbEntity
  8
BLACK
  6
CONTINUOUS
100
AcDbLine
 10
148.9372439999999926
 20
-132.6054159999999911
 30
0
 11
148.8420059999999978
 21
-132.3197020000000066
 31
0
  0
LINE
  5
169
330
1A
100
AcDbEntity
  8
BLACK
  6
CONTINUOUS
100
AcDbLine
 10
148.8420059999999978
 20
-132.3197020000000066
 30
0
 11
148.746768000000003
 21
-131.8435110000000066
 31
0
  0
LINE
  5
16A
330
1A
100
AcDbEntity
  8
BLACK
  6
CONTINUOUS
100
AcDbLine
 10
148.746768000000003
 20
-131.8435110000000066
 30
0
 11
148.746768000000003
 21
-131.4625589999999988
 31
0
  0
LINE
  5
16B
330
1A
100
AcDbEntity
  8
BLACK
  6
CONTINUOUS
100
AcDbLine
 10
148.746768000000003
 20
-131.4625589999999988
 30
0
 11
148.8420059999999978
 21
-130.9863679999999988
 31
0
  0
LINE
  5
16C
330
1A
100
AcDbEntity
  8
BLACK
  6
CONTINUOUS
100
AcDbLine
 10
148.8420059999999978
 20
-130.9863679999999988
 30
0
 11
148.9372439999999926
 21
-130.7006539999999859
 31
0
  0
LINE
  5
16D
330
1A
100
AcDbEntity
  8
BLACK
  6
CONTINUOUS
100
AcDbLine
 10
148.9372439999999926
 20
-130.7006539999999859
 30
0
 11
149.0324819999999875
 21
-130.5101779999999962
 31
0
  0
LINE
  5
16E
330
1A
100
AcDbEntity
  8
BLACK
  6
CONTINUOUS
100
AcDbLine
 10
149.0324819999999875
 20
-130.5101779999999962
 30
0
 11
149.2229580000000055
 21
-130.2244629999999859
 31
0
  0
LINE
  5
16F
330
1A
100
AcDbEntity
  8
BLACK
  6
CONTINUOUS
100
AcDbLine
 10
149.2229580000000055
 20
-130.2244629999999859
 30
0
 11
149.3181969999999978
 21
-130.129224999999991
 31
0
  0
LINE
  5
170
330
1A
100
AcDbEntity
  8
BLACK
  6
CONTINUOUS
100
AcDbLine
 10
149.9848629999999901
 20
-130.6054159999999911
 30
0
 11
150.0801009999999849
 21
-130.5101779999999962
 31
0
  0
LINE
  5
171
330
1A
100
AcDbEntity
  8
BLACK
  6
CONTINUOUS
100
AcDbLine
 10
150.0801009999999849
 20
-130.5101779999999962
 30
0
 11
150.270577000000003
 21
-130.4149400000000014
 31
0
  0
LINE
  5
172
330
1A
100
AcDbEntity
  8
BLACK
  6
CONTINUOUS
100
AcDbLine
 10
150.270577000000003
 20
-130.4149400000000014
 30
0
 11
150.746768000000003
 21
-130.4149400000000014
 31
0
  0
LINE
  5
173
330
1A
100
AcDbEntity
  8
BLACK
  6
CONTINUOUS
100
AcDbLine
 10
150.746768000000003
 20
-130.4149400000000014
 30
0
 11
150.9372439999999926
 21
-130.5101779999999962
 31
0
  0
LINE
  5
174
330
1A
100
AcDbEntity
  8
BLACK
  6
CONTINUOUS
100
AcDbLine
 10
150.9372439999999926
 20
-130.5101779999999962
 30
0
 11
151.0324819999999875
 21
-130.6054159999999911
 31
0
  0
LINE
  5
175
330
1A
100
AcDbEntity
  8
BLACK
  6
CONTINUOUS
100
AcDbLine
 10
151.0324819999999875
 20
-130.6054159999999911
 30
0
 11
151.1277199999999823
 21
-130.7958919999999807
 31
0
  0
LINE
  5
176
330
1A
100
AcDbEntity
  8
BLACK
  6
CONTINUOUS
100
AcDbLine
 10
151.1277199999999823
 20
-130.7958919999999807
 30
0
 11
151.1277199999999823
 21
-130.9863679999999988
 31
0
  0
LINE
  5
177
330
1A
100
AcDbEntity
  8
BLACK
  6
CONTINUOUS
100
AcDbLine
 10
151.1277199999999823
 20
-130.9863679999999988
 30
0
 11
151.0324819999999875
 21
-131.2720819999999833
 31
0
  0
LINE
  5
178
330
1A
100
AcDbEntity
  8
BLACK
  6
CONTINUOUS
100
AcDbLine
 10
151.0324819999999875
 20
-131.2720819999999833
 30
0
 11
149.8896249999999952
 21
-132.4149400000000014
 31
0
  0
LINE
  5
179
330
1A
100
AcDbEntity
  8
BLACK
  6
CONTINUOUS
100
AcDbLine
 10
149.8896249999999952
 20
-132.4149400000000014
 30
0
 11
151.1277199999999823
 21
-132.4149400000000014
 31
0
  0
LINE
  5
17A
330
1A
100
AcDbEntity
  8
BLACK
  6
CONTINUOUS
100
AcDbLine
 10
153.0324819999999875
 20
-132.4149400000000014
 30
0
 11
151.8896249999999952
 21
-132.4149400000000014
 31
0
  0
LINE
  5
17B
330
1A
100
AcDbEntity
  8
BLACK
  6
CONTINUOUS
100
AcDbLine
 10
152.4610529999999926
 20
-132.4149400000000014
 30
0
 11
152.4610529999999926
 21
-130.4149400000000014
 31
0
  0
LINE
  5
17C
330
1A
100
AcDbEntity
  8
BLACK
  6
CONTINUOUS
100
AcDbLine
 10
152.4610529999999926
 20
-130.4149400000000014
 30
0
 11
152.270577000000003
 21
-130.7006539999999859
 31
0
  0
LINE
  5
17D
330
1A
100
AcDbEntity
  8
BLACK
  6
CONTINUOUS
100
AcDbLine
 10
152.270577000000003
 20
-130.7006539999999859
 30
0
 11
152.0801009999999849
 21
-130.891130000000004
 31
0
  0
LINE
  5
17E
330
1A
100
AcDbEntity
  8
BLACK
  6
CONTINUOUS
100
AcDbLine
 10
152.0801009999999849
 20
-130.891130000000004
 30
0
 11
151.8896249999999952
 21
-130.9863679999999988
 31
0
  0
LINE
  5
17F
330
1A
100
AcDbEntity
  8
BLACK
  6
CONTINUOUS
100
AcDbLine
 10
155.4134349999999927
 20
-132.4149400000000014
 30
0
 11
155.4134349999999927
 21
-130.4149400000000014
 31
0
  0
LINE
  5
180
330
1A
100
AcDbEntity
  8
BLACK
  6
CONTINUOUS
100
AcDbLine
 10
156.2705780000000004
 20
-132.4149400000000014
 30
0
 11
156.2705780000000004
 21
-131.367321000000004
 31
0
  0
LINE
  5
181
330
1A
100
AcDbEntity
  8
BLACK
  6
CONTINUOUS
100
AcDbLine
 10
156.2705780000000004
 20
-131.367321000000004
 30
0
 11
156.1753400000000056
 21
-131.1768439999999885
 31
0
  0
LINE
  5
182
330
1A
100
AcDbEntity
  8
BLACK
  6
CONTINUOUS
100
AcDbLine
 10
156.1753400000000056
 20
-131.1768439999999885
 30
0
 11
155.9848639999999875
 21
-131.0816059999999936
 31
0
  0
LINE
  5
183
330
1A
100
AcDbEntity
  8
BLACK
  6
CONTINUOUS
100
AcDbLine
 10
155.9848639999999875
 20
-131.0816059999999936
 30
0
 11
155.6991490000000056
 21
-131.0816059999999936
 31
0
  0
LINE
  5
184
330
1A
100
AcDbEntity
  8
BLACK
  6
CONTINUOUS
100
AcDbLine
 10
155.6991490000000056
 20
-131.0816059999999936
 30
0
 11
155.5086729999999875
 21
-131.1768439999999885
 31
0
  0
LINE
  5
185
330
1A
100
AcDbEntity
  8
BLACK
  6
CONTINUOUS
100
AcDbLine
 10
155.5086729999999875
 20
-131.1768439999999885
 30
0
 11
155.4134349999999927
 21
-131.2720819999999833
 31
0
  0
LINE
  5
186
330
1A
100
AcDbEntity
  8
BLACK
  6
CONTINUOUS
100
AcDbLine
 10
157.5086729999999875
 20
-132.4149400000000014
 30
0
 11
157.3181969999999978
 21
-132.3197020000000066
 31
0
  0
LINE
  5
187
330
1A
100
AcDbEntity
  8
BLACK
  6
CONTINUOUS
100
AcDbLine
 10
157.3181969999999978
 20
-132.3197020000000066
 30
0
 11
157.222959000000003
 21
-132.2244629999999859
 31
0
  0
LINE
  5
188
330
1A
100
AcDbEntity
  8
BLACK
  6
CONTINUOUS
100
AcDbLine
 10
157.222959000000003
 20
-132.2244629999999859
 30
0
 11
157.1277209999999798
 21
-132.0339869999999962
 31
0
  0
LINE
  5
189
330
1A
100
AcDbEntity
  8
BLACK
  6
CONTINUOUS
100
AcDbLine
 10
157.1277209999999798
 20
-132.0339869999999962
 30
0
 11
157.1277209999999798
 21
-131.4625589999999988
 31
0
  0
LINE
  5
18A
330
1A
100
AcDbEntity
  8
BLACK
  6
CONTINUOUS
100
AcDbLine
 10
157.1277209999999798
 20
-131.4625589999999988
 30
0
 11
157.222959000000003
 21
-131.2720819999999833
 31
0
  0
LINE
  5
18B
330
1A
100
AcDbEntity
  8
BLACK
  6
CONTINUOUS
100
AcDbLine
 10
157.222959000000003
 20
-131.2720819999999833
 30
0
 11
157.3181969999999978
 21
-131.1768439999999885
 31
0
  0
LINE
  5
18C
330
1A
100
AcDbEntity
  8
BLACK
  6
CONTINUOUS
100
AcDbLine
 10
157.3181969999999978
 20
-131.1768439999999885
 30
0
 11
157.5086729999999875
 21
-131.0816059999999936
 31
0
  0
LINE
  5
18D
330
1A
100
AcDbEntity
  8
BLACK
  6
CONTINUOUS
100
AcDbLine
 10
157.5086729999999875
 20
-131.0816059999999936
 30
0
 11
157.7943879999999979
 21
-131.0816059999999936
 31
0
  0
LINE
  5
18E
330
1A
100
AcDbEntity
  8
BLACK
  6
CONTINUOUS
100
AcDbLine
 10
157.7943879999999979
 20
-131.0816059999999936
 30
0
 11
157.9848639999999875
 21
-131.1768439999999885
 31
0
  0
LINE
  5
18F
330
1A
100
AcDbEntity
  8
BLACK
  6
CONTINUOUS
100
AcDbLine
 10
157.9848639999999875
 20
-131.1768439999999885
 30
0
 11
158.0801019999999824
 21
-131.2720819999999833
 31
0
  0
LINE
  5
190
330
1A
100
AcDbEntity
  8
BLACK
  6
CONTINUOUS
100
AcDbLine
 10
158.0801019999999824
 20
-131.2720819999999833
 30
0
 11
158.1753400000000056
 21
-131.4625589999999988
 31
0
  0
LINE
  5
191
330
1A
100
AcDbEntity
  8
BLACK
  6
CONTINUOUS
100
AcDbLine
 10
158.1753400000000056
 20
-131.4625589999999988
 30
0
 11
158.1753400000000056
 21
-132.0339869999999962
 31
0
  0
LINE
  5
192
330
1A
100
AcDbEntity
  8
BLACK
  6
CONTINUOUS
100
AcDbLine
 10
158.1753400000000056
 20
-132.0339869999999962
 30
0
 11
158.0801019999999824
 21
-132.2244629999999859
 31
0
  0
LINE
  5
193
330
1A
100
AcDbEntity
  8
BLACK
  6
CONTINUOUS
100
AcDbLine
 10
158.0801019999999824
 20
-132.2244629999999859
 30
0
 11
157.9848639999999875
 21
-132.3197020000000066
 31
0
  0
LINE
  5
194
330
1A
100
AcDbEntity
  8
BLACK
  6
CONTINUOUS
100
AcDbLine
 10
157.9848639999999875
 20
-132.3197020000000066
 30
0
 11
157.7943879999999979
 21
-132.4149400000000014
 31
0
  0
LINE
  5
195
330
1A
100
AcDbEntity
  8
BLACK
  6
CONTINUOUS
100
AcDbLine
 10
157.7943879999999979
 20
-132.4149400000000014
 30
0
 11
157.5086729999999875
 21
-132.4149400000000014
 31
0
  0
LINE
  5
196
330
1A
100
AcDbEntity
  8
BLACK
  6
CONTINUOUS
100
AcDbLine
 10
159.3181969999999978
 20
-132.4149400000000014
 30
0
 11
159.1277209999999798
 21
-132.3197020000000066
 31
0
  0
LINE
  5
197
330
1A
100
AcDbEntity
  8
BLACK
  6
CONTINUOUS
100
AcDbLine
 10
159.1277209999999798
 20
-132.3197020000000066
 30
0
 11
159.0324829999999849
 21
-132.129224999999991
 31
0
  0
LINE
  5
198
330
1A
100
AcDbEntity
  8
BLACK
  6
CONTINUOUS
100
AcDbLine
 10
159.0324829999999849
 20
-132.129224999999991
 30
0
 11
159.0324829999999849
 21
-130.4149400000000014
 31
0
  0
LINE
  5
199
330
1A
100
AcDbEntity
  8
BLACK
  6
CONTINUOUS
100
AcDbLine
 10
160.8420069999999953
 20
-132.3197020000000066
 30
0
 11
160.6515310000000056
 21
-132.4149400000000014
 31
0
  0
LINE
  5
19A
330
1A
100
AcDbEntity
  8
BLACK
  6
CONTINUOUS
100
AcDbLine
 10
160.6515310000000056
 20
-132.4149400000000014
 30
0
 11
160.2705780000000004
 21
-132.4149400000000014
 31
0
  0
LINE
  5
19B
330
1A
100
AcDbEntity
  8
BLACK
  6
CONTINUOUS
100
AcDbLine
 10
160.2705780000000004
 20
-132.4149400000000014
 30
0
 11
160.0801019999999824
 21
-132.3197020000000066
 31
0
  0
LINE
  5
19C
330
1A
100
AcDbEntity
  8
BLACK
  6
CONTINUOUS
100
AcDbLine
 10
160.0801019999999824
 20
-132.3197020000000066
 30
0
 11
159.9848639999999875
 21
-132.129224999999991
 31
0
  0
LINE
  5
19D
330
1A
100
AcDbEntity
  8
BLACK
  6
CONTINUOUS
100
AcDbLine
 10
159.9848639999999875
 20
-132.129224999999991
 30
0
 11
159.9848639999999875
 21
-131.367321000000004
 31
0
  0
LINE
  5
19E
330
1A
100
AcDbEntity
  8
BLACK
  6
CONTINUOUS
100
AcDbLine
 10
159.9848639999999875
 20
-131.367321000000004
 30
0
 11
160.0801019999999824
 21
-131.1768439999999885
 31
0
  0
LINE
  5
19F
330
1A
100
AcDbEntity
  8
BLACK
  6
CONTINUOUS
100
AcDbLine
 10
160.0801019999999824
 20
-131.1768439999999885
 30
0
 11
160.2705780000000004
 21
-131.0816059999999936
 31
0
  0
LINE
  5
1A0
330
1A
100
AcDbEntity
  8
BLACK
  6
CONTINUOUS
100
AcDbLine
 10
160.2705780000000004
 20
-131.0816059999999936
 30
0
 11
160.6515310000000056
 21
-131.0816059999999936
 31
0
  0
LINE
  5
1A1
330
1A
100
AcDbEntity
  8
BLACK
  6
CONTINUOUS
100
AcDbLine
 10
160.6515310000000056
 20
-131.0816059999999936
 30
0
 11
160.8420069999999953
 21
-131.1768439999999885
 31
0
  0
LINE
  5
1A2
330
1A
100
AcDbEntity
  8
BLACK
  6
CONTINUOUS
100
AcDbLine
 10
160.8420069999999953
 20
-131.1768439999999885
 30
0
 11
160.9372449999999901
 21
-131.367321000000004
 31
0
  0
LINE
  5
1A3
330
1A
100
AcDbEntity
  8
BLACK
  6
CONTINUOUS
100
AcDbLine
 10
160.9372449999999901
 20
-131.367321000000004
 30
0
 11
160.9372449999999901
 21
-131.5577969999999937
 31
0
  0
LINE
  5
1A4
330
1A
100
AcDbEntity
  8
BLACK
  6
CONTINUOUS
100
AcDbLine
 10
160.9372449999999901
 20
-131.5577969999999937
 30
0
 11
159.9848639999999875
 21
-131.7482729999999833
 31
0
  0
LINE
  5
1A5
330
1A
100
AcDbEntity
  8
BLACK
  6
CONTINUOUS
100
AcDbLine
 10
161.699150000000003
 20
-132.3197020000000066
 30
0
 11
161.8896259999999927
 21
-132.4149400000000014
 31
0
  0
LINE
  5
1A6
330
1A
100
AcDbEntity
  8
BLACK
  6
CONTINUOUS
100
AcDbLine
 10
161.8896259999999927
 20
-132.4149400000000014
 30
0
 11
162.2705780000000004
 21
-132.4149400000000014
 31
0
  0
LINE
  5
1A7
330
1A
100
AcDbEntity
  8
BLACK
  6
CONTINUOUS
100
AcDbLine
 10
162.2705780000000004
 20
-132.4149400000000014
 30
0
 11
162.4610549999999876
 21
-132.3197020000000066
 31
0
  0
LINE
  5
1A8
330
1A
100
AcDbEntity
  8
BLACK
  6
CONTINUOUS
100
AcDbLine
 10
162.4610549999999876
 20
-132.3197020000000066
 30
0
 11
162.5562929999999824
 21
-132.129224999999991
 31
0
  0
LINE
  5
1A9
330
1A
100
AcDbEntity
  8
BLACK
  6
CONTINUOUS
100
AcDbLine
 10
162.5562929999999824
 20
-132.129224999999991
 30
0
 11
162.5562929999999824
 21
-132.0339869999999962
 31
0
  0
LINE
  5
1AA
330
1A
100
AcDbEntity
  8
BLACK
  6
CONTINUOUS
100
AcDbLine
 10
162.5562929999999824
 20
-132.0339869999999962
 30
0
 11
162.4610549999999876
 21
-131.8435110000000066
 31
0
  0
LINE
  5
1AB
330
1A
100
AcDbEntity
  8
BLACK
  6
CONTINUOUS
100
AcDbLine
 10
162.4610549999999876
 20
-131.8435110000000066
 30
0
 11
162.2705780000000004
 21
-131.7482729999999833
 31
0
  0
LINE
  5
1AC
330
1A
100
AcDbEntity
  8
BLACK
  6
CONTINUOUS
100
AcDbLine
 10
162.2705780000000004
 20
-131.7482729999999833
 30
0
 11
161.9848639999999875
 21
-131.7482729999999833
 31
0
  0
LINE
  5
1AD
330
1A
100
AcDbEntity
  8
BLACK
  6
CONTINUOUS
100
AcDbLine
 10
161.9848639999999875
 20
-131.7482729999999833
 30
0
 11
161.7943879999999979
 21
-131.6530349999999885
 31
0
  0
LINE
  5
1AE
330
1A
100
AcDbEntity
  8
BLACK
  6
CONTINUOUS
100
AcDbLine
 10
161.7943879999999979
 20
-131.6530349999999885
 30
0
 11
161.699150000000003
 21
-131.4625589999999988
 31
0
  0
LINE
  5
1AF
330
1A
100
AcDbEntity
  8
BLACK
  6
CONTINUOUS
100
AcDbLine
 10
161.699150000000003
 20
-131.4625589999999988
 30
0
 11
161.699150000000003
 21
-131.367321000000004
 31
0
  0
LINE
  5
1B0
330
1A
100
AcDbEntity
  8
BLACK
  6
CONTINUOUS
100
AcDbLine
 10
161.699150000000003
 20
-131.367321000000004
 30
0
 11
161.7943879999999979
 21
-131.1768439999999885
 31
0
  0
LINE
  5
1B1
330
1A
100
AcDbEntity
  8
BLACK
  6
CONTINUOUS
100
AcDbLine
 10
161.7943879999999979
 20
-131.1768439999999885
 30
0
 11
161.9848639999999875
 21
-131.0816059999999936
 31
0
  0
LINE
  5
1B2
330
1A
100
AcDbEntity
  8
BLACK
  6
CONTINUOUS
100
AcDbLine
 10
161.9848639999999875
 20
-131.0816059999999936
 30
0
 11
162.2705780000000004
 21
-131.0816059999999936
 31
0
  0
LINE
  5
1B3
330
1A
100
AcDbEntity
  8
BLACK
  6
CONTINUOUS
100
AcDbLine
 10
162.2705780000000004
 20
-131.0816059999999936
 30
0
 11
162.4610549999999876
 21
-131.1768439999999885
 31
0
  0
LINE
  5
1B4
330
1A
100
AcDbEntity
  8
BLACK
  6
CONTINUOUS
100
AcDbLine
 10
163.2229600000000005
 20
-133.1768439999999885
 30
0
 11
163.3181979999999953
 21
-133.0816059999999936
 31
0
  0
LINE
  5
1B5
330
1A
100
AcDbEntity
  8
BLACK
  6
CONTINUOUS
100
AcDbLine
 10
163.3181979999999953
 20
-133.0816059999999936
 30
0
 11
163.508673999999985
 21
-132.7958919999999807
 31
0
  0
LINE
  5
1B6
330
1A
100
AcDbEntity
  8
BLACK
  6
CONTINUOUS
100
AcDbLine
 10
163.508673999999985
 20
-132.7958919999999807
 30
0
 11
163.6039119999999798
 21
-132.6054159999999911
 31
0
  0
LINE
  5
1B7
330
1A
100
AcDbEntity
  8
BLACK
  6
CONTINUOUS
100
AcDbLine
 10
163.6039119999999798
 20
-132.6054159999999911
 30
0
 11
163.699150000000003
 21
-132.3197020000000066
 31
0
  0
LINE
  5
1B8
330
1A
100
AcDbEntity
  8
BLACK
  6
CONTINUOUS
100
AcDbLine
 10
163.699150000000003
 20
-132.3197020000000066
 30
0
 11
163.7943879999999979
 21
-131.8435110000000066
 31
0
  0
LINE
  5
1B9
330
1A
100
AcDbEntity
  8
BLACK
  6
CONTINUOUS
100
AcDbLine
 10
163.7943879999999979
 20
-131.8435110000000066
 30
0
 11
163.7943879999999979
 21
-131.4625589999999988
 31
0
  0
LINE
  5
1BA
330
1A
100
AcDbEntity
  8
BLACK
  6
CONTINUOUS
100
AcDbLine
 10
163.7943879999999979
 20
-131.4625589999999988
 30
0
 11
163.699150000000003
 21
-130.9863679999999988
 31
0
  0
LINE
  5
1BB
330
1A
100
AcDbEntity
  8
BLACK
  6
CONTINUOUS
100
AcDbLine
 10
163.699150000000003
 20
-130.9863679999999988
 30
0
 11
163.6039119999999798
 21
-130.7006539999999859
 31
0
  0
LINE
  5
1BC
330
1A
100
AcDbEntity
  8
BLACK
  6
CONTINUOUS
100
AcDbLine
 10
163.6039119999999798
 20
-130.7006539999999859
 30
0
 11
163.508673999999985
 21
-130.5101779999999962
 31
0
  0
LINE
  5
1BD
330
1A
100
AcDbEntity
  8
BLACK
  6
CONTINUOUS
100
AcDbLine
 10
163.508673999999985
 20
-130.5101779999999962
 30
0
 11
163.3181979999999953
 21
-130.2244629999999859
 31
0
  0
LINE
  5
1BE
330
1A
100
AcDbEntity
  8
BLACK
  6
CONTINUOUS
100
AcDbLine
 10
163.3181979999999953
 20
-130.2244629999999859
 30
0
 11
163.2229600000000005
 21
-130.129224999999991
 31
0
  0
LINE
  5
1BF
330
1A
100
AcDbEntity
  8
BLACK
  6
CONTINUOUS
100
AcDbLine
 10
166.8420079999999928
 20
-133.1768439999999885
 30
0
 11
166.7467690000000005
 21
-133.0816059999999936
 31
0
  0
LINE
  5
1C0
330
1A
100
AcDbEntity
  8
BLACK
  6
CONTINUOUS
100
AcDbLine
 10
166.7467690000000005
 20
-133.0816059999999936
 30
0
 11
166.5562929999999824
 21
-132.7958919999999807
 31
0
  0
LINE
  5
1C1
330
1A
100
AcDbEntity
  8
BLACK
  6
CONTINUOUS
100
AcDbLine
 10
166.5562929999999824
 20
-132.7958919999999807
 30
0
 11
166.4610549999999876
 21
-132.6054159999999911
 31
0
  0
LINE
  5
1C2
330
1A
100
AcDbEntity
  8
BLACK
  6
CONTINUOUS
100
AcDbLine
 10
166.4610549999999876
 20
-132.6054159999999911
 30
0
 11
166.3658169999999927
 21
-132.3197020000000066
 31
0
  0
LINE
  5
1C3
330
1A
100
AcDbEntity
  8
BLACK
  6
CONTINUOUS
100
AcDbLine
 10
166.3658169999999927
 20
-132.3197020000000066
 30
0
 11
166.2705789999999979
 21
-131.8435110000000066
 31
0
  0
LINE
  5
1C4
330
1A
100
AcDbEntity
  8
BLACK
  6
CONTINUOUS
100
AcDbLine
 10
166.2705789999999979
 20
-131.8435110000000066
 30
0
 11
166.2705789999999979
 21
-131.4625589999999988
 31
0
  0
LINE
  5
1C5
330
1A
100
AcDbEntity
  8
BLACK
  6
CONTINUOUS
100
AcDbLine
 10
166.2705789999999979
 20
-131.4625589999999988
 30
0
 11
166.3658169999999927
 21
-130.9863679999999988
 31
0
  0
LINE
  5
1C6
330
1A
100
AcDbEntity
  8
BLACK
  6
CONTINUOUS
100
AcDbLine
 10
166.3658169999999927
 20
-130.9863679999999988
 30
0
 11
166.4610549999999876
 21
-130.7006539999999859
 31
0
  0
LINE
  5
1C7
330
1A
100
AcDbEntity
  8
BLACK
  6
CONTINUOUS
100
AcDbLine
 10
166.4610549999999876
 20
-130.7006539999999859
 30
0
 11
166.5562929999999824
 21
-130.5101779999999962
 31
0
  0
LINE
  5
1C8
330
1A
100
AcDbEntity
  8
BLACK
  6
CONTINUOUS
100
AcDbLine
 10
166.5562929999999824
 20
-130.5101779999999962
 30
0
 11
166.7467690000000005
 21
-130.2244629999999859
 31
0
  0
LINE
  5
1C9
330
1A
100
AcDbEntity
  8
BLACK
  6
CONTINUOUS
100
AcDbLine
 10
166.7467690000000005
 20
-130.2244629999999859
 30
0
 11
166.8420079999999928
 21
-130.129224999999991
 31
0
  0
LINE
  5
1CA
330
1A
100
AcDbEntity
  8
BLACK
  6
CONTINUOUS
100
AcDbLine
 10
167.6039119999999798
 20
-131.0816059999999936
 30
0
 11
167.6039119999999798
 21
-132.4149400000000014
 31
0
  0
LINE
  5
1CB
330
1A
100
AcDbEntity
  8
BLACK
  6
CONTINUOUS
100
AcDbLine
 10
167.6039119999999798
 20
-131.2720819999999833
 30
0
 11
167.699150000000003
 21
-131.1768439999999885
 31
0
  0
LINE
  5
1CC
330
1A
100
AcDbEntity
  8
BLACK
  6
CONTINUOUS
100
AcDbLine
 10
167.699150000000003
 20
-131.1768439999999885
 30
0
 11
167.8896259999999927
 21
-131.0816059999999936
 31
0
  0
LINE
  5
1CD
330
1A
100
AcDbEntity
  8
BLACK
  6
CONTINUOUS
100
AcDbLine
 10
167.8896259999999927
 20
-131.0816059999999936
 30
0
 11
168.1753410000000031
 21
-131.0816059999999936
 31
0
  0
LINE
  5
1CE
330
1A
100
AcDbEntity
  8
BLACK
  6
CONTINUOUS
100
AcDbLine
 10
168.1753410000000031
 20
-131.0816059999999936
 30
0
 11
168.3658169999999927
 21
-131.1768439999999885
 31
0
  0
LINE
  5
1CF
330
1A
100
AcDbEntity
  8
BLACK
  6
CONTINUOUS
100
AcDbLine
 10
168.3658169999999927
 20
-131.1768439999999885
 30
0
 11
168.4610549999999876
 21
-131.367321000000004
 31
0
  0
LINE
  5
1D0
330
1A
100
AcDbEntity
  8
BLACK
  6
CONTINUOUS
100
AcDbLine
 10
168.4610549999999876
 20
-131.367321000000004
 30
0
 11
168.4610549999999876
 21
-132.4149400000000014
 31
0
  0
LINE
  5
1D1
330
1A
100
AcDbEntity
  8
BLACK
  6
CONTINUOUS
100
AcDbLine
 10
169.699150000000003
 20
-132.4149400000000014
 30
0
 11
169.508673999999985
 21
-132.3197020000000066
 31
0
  0
LINE
  5
1D2
330
1A
100
AcDbEntity
  8
BLACK
  6
CONTINUOUS
100
AcDbLine
 10
169.508673999999985
 20
-132.3197020000000066
 30
0
 11
169.4134359999999901
 21
-132.2244629999999859
 31
0
  0
LINE
  5
1D3
330
1A
100
AcDbEntity
  8
BLACK
  6
CONTINUOUS
100
AcDbLine
 10
169.4134359999999901
 20
-132.2244629999999859
 30
0
 11
169.3181979999999953
 21
-132.0339869999999962
 31
0
  0
LINE
  5
1D4
330
1A
100
AcDbEntity
  8
BLACK
  6
CONTINUOUS
100
AcDbLine
 10
169.3181979999999953
 20
-132.0339869999999962
 30
0
 11
169.3181979999999953
 21
-131.4625589999999988
 31
0
  0
LINE
  5
1D5
330
1A
100
AcDbEntity
  8
BLACK
  6
CONTINUOUS
100
AcDbLine
 10
169.3181979999999953
 20
-131.4625589999999988
 30
0
 11
169.4134359999999901
 21
-131.2720819999999833
 31
0
  0
LINE
  5
1D6
330
1A
100
AcDbEntity
  8
BLACK
  6
CONTINUOUS
100
AcDbLine
 10
169.4134359999999901
 20
-131.2720819999999833
 30
0
 11
169.508673999999985
 21
-131.1768439999999885
 31
0
  0
LINE
  5
1D7
330
1A
100
AcDbEntity
  8
BLACK
  6
CONTINUOUS
100
AcDbLine
 10
169.508673999999985
 20
-131.1768439999999885
 30
0
 11
169.699150000000003
 21
-131.0816059999999936
 31
0
  0
LINE
  5
1D8
330
1A
100
AcDbEntity
  8
BLACK
  6
CONTINUOUS
100
AcDbLine
 10
169.699150000000003
 20
-131.0816059999999936
 30
0
 11
169.984864999999985
 21
-131.0816059999999936
 31
0
  0
LINE
  5
1D9
330
1A
100
AcDbEntity
  8
BLACK
  6
CONTINUOUS
100
AcDbLine
 10
169.984864999999985
 20
-131.0816059999999936
 30
0
 11
170.1753410000000031
 21
-131.1768439999999885
 31
0
  0
LINE
  5
1DA
330
1A
100
AcDbEntity
  8
BLACK
  6
CONTINUOUS
100
AcDbLine
 10
170.1753410000000031
 20
-131.1768439999999885
 30
0
 11
170.2705789999999979
 21
-131.2720819999999833
 31
0
  0
LINE
  5
1DB
330
1A
100
AcDbEntity
  8
BLACK
  6
CONTINUOUS
100
AcDbLine
 10
170.2705789999999979
 20
-131.2720819999999833
 30
0
 11
170.3658169999999927
 21
-131.4625589999999988
 31
0
  0
LINE
  5
1DC
330
1A
100
AcDbEntity
  8
BLACK
  6
CONTINUOUS
100
AcDbLine
 10
170.3658169999999927
 20
-131.4625589999999988
 30
0
 11
170.3658169999999927
 21
-132.0339869999999962
 31
0
  0
LINE
  5
1DD
330
1A
100
AcDbEntity
  8
BLACK
  6
CONTINUOUS
100
AcDbLine
 10
170.3658169999999927
 20
-132.0339869999999962
 30
0
 11
170.2705789999999979
 21
-132.2244629999999859
 31
0
  0
LINE
  5
1DE
330
1A
100
AcDbEntity
  8
BLACK
  6
CONTINUOUS
100
AcDbLine
 10
170.2705789999999979
 20
-132.2244629999999859
 30
0
 11
170.1753410000000031
 21
-132.3197020000000066
 31
0
  0
LINE
  5
1DF
330
1A
100
AcDbEntity
  8
BLACK
  6
CONTINUOUS
100
AcDbLine
 10
170.1753410000000031
 20
-132.3197020000000066
 30
0
 11
169.984864999999985
 21
-132.4149400000000014
 31
0
  0
LINE
  5
1E0
330
1A
100
AcDbEntity
  8
BLACK
  6
CONTINUOUS
100
AcDbLine
 10
169.984864999999985
 20
-132.4149400000000014
 30
0
 11
169.699150000000003
 21
-132.4149400000000014
 31
0
  0
LINE
  5
1E1
330
1A
100
AcDbEntity
  8
BLACK
  6
CONTINUOUS
100
AcDbLine
 10
170.9372459999999876
 20
-131.0816059999999936
 30
0
 11
171.699150000000003
 21
-131.0816059999999936
 31
0
  0
LINE
  5
1E2
330
1A
100
AcDbEntity
  8
BLACK
  6
CONTINUOUS
100
AcDbLine
 10
171.2229600000000005
 20
-130.4149400000000014
 30
0
 11
171.2229600000000005
 21
-132.129224999999991
 31
0
  0
LINE
  5
1E3
330
1A
100
AcDbEntity
  8
BLACK
  6
CONTINUOUS
100
AcDbLine
 10
171.2229600000000005
 20
-132.129224999999991
 30
0
 11
171.3181979999999953
 21
-132.3197020000000066
 31
0
  0
LINE
  5
1E4
330
1A
100
AcDbEntity
  8
BLACK
  6
CONTINUOUS
100
AcDbLine
 10
171.3181979999999953
 20
-132.3197020000000066
 30
0
 11
171.508673999999985
 21
-132.4149400000000014
 31
0
  0
LINE
  5
1E5
330
1A
100
AcDbEntity
  8
BLACK
  6
CONTINUOUS
100
AcDbLine
 10
171.508673999999985
 20
-132.4149400000000014
 30
0
 11
171.699150000000003
 21
-132.4149400000000014
 31
0
  0
LINE
  5
1E6
330
1A
100
AcDbEntity
  8
BLACK
  6
CONTINUOUS
100
AcDbLine
 10
173.8896269999999902
 20
-131.0816059999999936
 30
0
 11
173.8896269999999902
 21
-133.0816059999999936
 31
0
  0
LINE
  5
1E7
330
1A
100
AcDbEntity
  8
BLACK
  6
CONTINUOUS
100
AcDbLine
 10
173.8896269999999902
 20
-131.1768439999999885
 30
0
 11
174.0801029999999798
 21
-131.0816059999999936
 31
0
  0
LINE
  5
1E8
330
1A
100
AcDbEntity
  8
BLACK
  6
CONTINUOUS
100
AcDbLine
 10
174.0801029999999798
 20
-131.0816059999999936
 30
0
 11
174.461055999999985
 21
-131.0816059999999936
 31
0
  0
LINE
  5
1E9
330
1A
100
AcDbEntity
  8
BLACK
  6
CONTINUOUS
100
AcDbLine
 10
174.461055999999985
 20
-131.0816059999999936
 30
0
 11
174.6515320000000031
 21
-131.1768439999999885
 31
0
  0
LINE
  5
1EA
330
1A
100
AcDbEntity
  8
BLACK
  6
CONTINUOUS
100
AcDbLine
 10
174.6515320000000031
 20
-131.1768439999999885
 30
0
 11
174.7467699999999979
 21
-131.2720819999999833
 31
0
  0
LINE
  5
1EB
330
1A
100
AcDbEntity
  8
BLACK
  6
CONTINUOUS
100
AcDbLine
 10
174.7467699999999979
 20
-131.2720819999999833
 30
0
 11
174.8420079999999928
 21
-131.4625589999999988
 31
0
  0
LINE
  5
1EC
330
1A
100
AcDbEntity
  8
BLACK
  6
CONTINUOUS
100
AcDbLine
 10
174.8420079999999928
 20
-131.4625589999999988
 30
0
 11
174.8420079999999928
 21
-132.0339869999999962
 31
0
  0
LINE
  5
1ED
330
1A
100
AcDbEntity
  8
BLACK
  6
CONTINUOUS
100
AcDbLine
 10
174.8420079999999928
 20
-132.0339869999999962
 30
0
 11
174.7467699999999979
 21
-132.2244629999999859
 31
0
  0
LINE
  5
1EE
330
1A
100
AcDbEntity
  8
BLACK
  6
CONTINUOUS
100
AcDbLine
 10
174.7467699999999979
 20
-132.2244629999999859
 30
0
 11
174.6515320000000031
 21
-132.3197020000000066
 31
0
  0
LINE
  5
1EF
330
1A
100
AcDbEntity
  8
BLACK
  6
CONTINUOUS
100
AcDbLine
 10
174.6515320000000031
 20
-132.3197020000000066
 30
0
 11
174.461055999999985
 21
-132.4149400000000014
 31
0
  0
LINE
  5
1F0
330
1A
100
AcDbEntity
  8
BLACK
  6
CONTINUOUS
100
AcDbLine
 10
174.461055999999985
 20
-132.4149400000000014
 30
0
 11
174.0801029999999798
 21
-132.4149400000000014
 31
0
  0
LINE
  5
1F1
330
1A
100
AcDbEntity
  8
BLACK
  6
CONTINUOUS
100
AcDbLine
 10
174.0801029999999798
 20
-132.4149400000000014
 30
0
 11
173.8896269999999902
 21
-132.3197020000000066
 31
0
  0
LINE
  5
1F2
330
1A
100
AcDbEntity
  8
BLACK
  6
CONTINUOUS
100
AcDbLine
 10
175.984864999999985
 20
-132.4149400000000014
 30
0
 11
175.7943889999999953
 21
-132.3197020000000066
 31
0
  0
LINE
  5
1F3
330
1A
100
AcDbEntity
  8
BLACK
  6
CONTINUOUS
100
AcDbLine
 10
175.7943889999999953
 20
-132.3197020000000066
 30
0
 11
175.6991510000000005
 21
-132.129224999999991
 31
0
  0
LINE
  5
1F4
330
1A
100
AcDbEntity
  8
BLACK
  6
CONTINUOUS
100
AcDbLine
 10
175.6991510000000005
 20
-132.129224999999991
 30
0
 11
175.6991510000000005
 21
-130.4149400000000014
 31
0
  0
LINE
  5
1F5
330
1A
100
AcDbEntity
  8
BLACK
  6
CONTINUOUS
100
AcDbLine
 10
177.6039130000000057
 20
-132.4149400000000014
 30
0
 11
177.6039130000000057
 21
-131.367321000000004
 31
0
  0
LINE
  5
1F6
330
1A
100
AcDbEntity
  8
BLACK
  6
CONTINUOUS
100
AcDbLine
 10
177.6039130000000057
 20
-131.367321000000004
 30
0
 11
177.5086749999999824
 21
-131.1768439999999885
 31
0
  0
LINE
  5
1F7
330
1A
100
AcDbEntity
  8
BLACK
  6
CONTINUOUS
100
AcDbLine
 10
177.5086749999999824
 20
-131.1768439999999885
 30
0
 11
177.3181989999999928
 21
-131.0816059999999936
 31
0
  0
LINE
  5
1F8
330
1A
100
AcDbEntity
  8
BLACK
  6
CONTINUOUS
100
AcDbLine
 10
177.3181989999999928
 20
-131.0816059999999936
 30
0
 11
176.9372459999999876
 21
-131.0816059999999936
 31
0
  0
LINE
  5
1F9
330
1A
100
AcDbEntity
  8
BLACK
  6
CONTINUOUS
100
AcDbLine
 10
176.9372459999999876
 20
-131.0816059999999936
 30
0
 11
176.7467699999999979
 21
-131.1768439999999885
 31
0
  0
LINE
  5
1FA
330
1A
100
AcDbEntity
  8
BLACK
  6
CONTINUOUS
100
AcDbLine
 10
177.6039130000000057
 20
-132.3197020000000066
 30
0
 11
177.4134369999999876
 21
-132.4149400000000014
 31
0
  0
LINE
  5
1FB
330
1A
100
AcDbEntity
  8
BLACK
  6
CONTINUOUS
100
AcDbLine
 10
177.4134369999999876
 20
-132.4149400000000014
 30
0
 11
176.9372459999999876
 21
-132.4149400000000014
 31
0
  0
LINE
  5
1FC
330
1A
100
AcDbEntity
  8
BLACK
  6
CONTINUOUS
100
AcDbLine
 10
176.9372459999999876
 20
-132.4149400000000014
 30
0
 11
176.7467699999999979
 21
-132.3197020000000066
 31
0
  0
LINE
  5
1FD
330
1A
100
AcDbEntity
  8
BLACK
  6
CONTINUOUS
100
AcDbLine
 10
176.7467699999999979
 20
-132.3197020000000066
 30
0
 11
176.6515320000000031
 21
-132.129224999999991
 31
0
  0
LINE
  5
1FE
330
1A
100
AcDbEntity
  8
BLACK
  6
CONTINUOUS
100
AcDbLine
 10
176.6515320000000031
 20
-132.129224999999991
 30
0
 11
176.6515320000000031
 21
-131.9387490000000014
 31
0
  0
LINE
  5
1FF
330
1A
100
AcDbEntity
  8
BLACK
  6
CONTINUOUS
100
AcDbLine
 10
176.6515320000000031
 20
-131.9387490000000014
 30
0
 11
176.7467699999999979
 21
-131.7482729999999833
 31
0
  0
LINE
  5
200
330
1A
100
AcDbEntity
  8
BLACK
  6
CONTINUOUS
100
AcDbLine
 10
176.7467699999999979
 20
-131.7482729999999833
 30
0
 11
176.9372459999999876
 21
-131.6530349999999885
 31
0
  0
LINE
  5
201
330
1A
100
AcDbEntity
  8
BLACK
  6
CONTINUOUS
100
AcDbLine
 10
176.9372459999999876
 20
-131.6530349999999885
 30
0
 11
177.4134369999999876
 21
-131.6530349999999885
 31
0
  0
LINE
  5
202
330
1A
100
AcDbEntity
  8
BLACK
  6
CONTINUOUS
100
AcDbLine
 10
177.4134369999999876
 20
-131.6530349999999885
 30
0
 11
177.6039130000000057
 21
-131.5577969999999937
 31
0
  0
LINE
  5
203
330
1A
100
AcDbEntity
  8
BLACK
  6
CONTINUOUS
100
AcDbLine
 10
178.2705799999999954
 20
-131.0816059999999936
 30
0
 11
179.0324839999999824
 21
-131.0816059999999936
 31
0
  0
LINE
  5
204
330
1A
100
AcDbEntity
  8
BLACK
  6
CONTINUOUS
100
AcDbLine
 10
178.5562939999999799
 20
-130.4149400000000014
 30
0
 11
178.5562939999999799
 21
-132.129224999999991
 31
0
  0
LINE
  5
205
330
1A
100
AcDbEntity
  8
BLACK
  6
CONTINUOUS
100
AcDbLine
 10
178.5562939999999799
 20
-132.129224999999991
 30
0
 11
178.6515320000000031
 21
-132.3197020000000066
 31
0
  0
LINE
  5
206
330
1A
100
AcDbEntity
  8
BLACK
  6
CONTINUOUS
100
AcDbLine
 10
178.6515320000000031
 20
-132.3197020000000066
 30
0
 11
178.8420079999999928
 21
-132.4149400000000014
 31
0
  0
LINE
  5
207
330
1A
100
AcDbEntity
  8
BLACK
  6
CONTINUOUS
100
AcDbLine
 10
178.8420079999999928
 20
-132.4149400000000014
 30
0
 11
179.0324839999999824
 21
-132.4149400000000014
 31
0
  0
LINE
  5
208
330
1A
100
AcDbEntity
  8
BLACK
  6
CONTINUOUS
100
AcDbLine
 10
180.461055999999985
 20
-132.3197020000000066
 30
0
 11
180.2705799999999954
 21
-132.4149400000000014
 31
0
  0
LINE
  5
209
330
1A
100
AcDbEntity
  8
BLACK
  6
CONTINUOUS
100
AcDbLine
 10
180.2705799999999954
 20
-132.4149400000000014
 30
0
 11
179.8896269999999902
 21
-132.4149400000000014
 31
0
  0
LINE
  5
20A
330
1A
100
AcDbEntity
  8
BLACK
  6
CONTINUOUS
100
AcDbLine
 10
179.8896269999999902
 20
-132.4149400000000014
 30
0
 11
179.6991510000000005
 21
-132.3197020000000066
 31
0
  0
LINE
  5
20B
330
1A
100
AcDbEntity
  8
BLACK
  6
CONTINUOUS
100
AcDbLine
 10
179.6991510000000005
 20
-132.3197020000000066
 30
0
 11
179.6039130000000057
 21
-132.129224999999991
 31
0
  0
LINE
  5
20C
330
1A
100
AcDbEntity
  8
BLACK
  6
CONTINUOUS
100
AcDbLine
 10
179.6039130000000057
 20
-132.129224999999991
 30
0
 11
179.6039130000000057
 21
-131.367321000000004
 31
0
  0
LINE
  5
20D
330
1A
100
AcDbEntity
  8
BLACK
  6
CONTINUOUS
100
AcDbLine
 10
179.6039130000000057
 20
-131.367321000000004
 30
0
 11
179.6991510000000005
 21
-131.1768439999999885
 31
0
  0
LINE
  5
20E
330
1A
100
AcDbEntity
  8
BLACK
  6
CONTINUOUS
100
AcDbLine
 10
179.6991510000000005
 20
-131.1768439999999885
 30
0
 11
179.8896269999999902
 21
-131.0816059999999936
 31
0
  0
LINE
  5
20F
330
1A
100
AcDbEntity
  8
BLACK
  6
CONTINUOUS
100
AcDbLine
 10
179.8896269999999902
 20
-131.0816059999999936
 30
0
 11
180.2705799999999954
 21
-131.0816059999999936
 31
0
  0
LINE
  5
210
330
1A
100
AcDbEntity
  8
BLACK
  6
CONTINUOUS
100
AcDbLine
 10
180.2705799999999954
 20
-131.0816059999999936
 30
0
 11
180.461055999999985
 21
-131.1768439999999885
 31
0
  0
LINE
  5
211
330
1A
100
AcDbEntity
  8
BLACK
  6
CONTINUOUS
100
AcDbLine
 10
180.461055999999985
 20
-131.1768439999999885
 30
0
 11
180.5562939999999799
 21
-131.367321000000004
 31
0
  0
LINE
  5
212
330
1A
100
AcDbEntity
  8
BLACK
  6
CONTINUOUS
100
AcDbLine
 10
180.5562939999999799
 20
-131.367321000000004
 30
0
 11
180.5562939999999799
 21
-131.5577969999999937
 31
0
  0
LINE
  5
213
330
1A
100
AcDbEntity
  8
BLACK
  6
CONTINUOUS
100
AcDbLine
 10
180.5562939999999799
 20
-131.5577969999999937
 30
0
 11
179.6039130000000057
 21
-131.7482729999999833
 31
0
  0
LINE
  5
214
330
1A
100
AcDbEntity
  8
BLACK
  6
CONTINUOUS
100
AcDbLine
 10
182.2705799999999954
 20
-132.4149400000000014
 30
0
 11
182.2705799999999954
 21
-130.4149400000000014
 31
0
  0
LINE
  5
215
330
1A
100
AcDbEntity
  8
BLACK
  6
CONTINUOUS
100
AcDbLine
 10
182.2705799999999954
 20
-132.3197020000000066
 30
0
 11
182.0801040000000057
 21
-132.4149400000000014
 31
0
  0
LINE
  5
216
330
1A
100
AcDbEntity
  8
BLACK
  6
CONTINUOUS
100
AcDbLine
 10
182.0801040000000057
 20
-132.4149400000000014
 30
0
 11
181.6991510000000005
 21
-132.4149400000000014
 31
0
  0
LINE
  5
217
330
1A
100
AcDbEntity
  8
BLACK
  6
CONTINUOUS
100
AcDbLine
 10
181.6991510000000005
 20
-132.4149400000000014
 30
0
 11
181.5086749999999824
 21
-132.3197020000000066
 31
0
  0
LINE
  5
218
330
1A
100
AcDbEntity
  8
BLACK
  6
CONTINUOUS
100
AcDbLine
 10
181.5086749999999824
 20
-132.3197020000000066
 30
0
 11
181.4134369999999876
 21
-132.2244629999999859
 31
0
  0
LINE
  5
219
330
1A
100
AcDbEntity
  8
BLACK
  6
CONTINUOUS
100
AcDbLine
 10
181.4134369999999876
 20
-132.2244629999999859
 30
0
 11
181.3181989999999928
 21
-132.0339869999999962
 31
0
  0
LINE
  5
21A
330
1A
100
AcDbEntity
  8
BLACK
  6
CONTINUOUS
100
AcDbLine
 10
181.3181989999999928
 20
-132.0339869999999962
 30
0
 11
181.3181989999999928
 21
-131.4625589999999988
 31
0
  0
LINE
  5
21B
330
1A
100
AcDbEntity
  8
BLACK
  6
CONTINUOUS
100
AcDbLine
 10
181.3181989999999928
 20
-131.4625589999999988
 30
0
 11
181.4134369999999876
 21
-131.2720819999999833
 31
0
  0
LINE
  5
21C
330
1A
100
AcDbEntity
  8
BLACK
  6
CONTINUOUS
100
AcDbLine
 10
181.4134369999999876
 20
-131.2720819999999833
 30
0
 11
181.5086749999999824
 21
-131.1768439999999885
 31
0
  0
LINE
  5
21D
330
1A
100
AcDbEntity
  8
BLACK
  6
CONTINUOUS
100
AcDbLine
 10
181.5086749999999824
 20
-131.1768439999999885
 30
0
 11
181.6991510000000005
 21
-131.0816059999999936
 31
0
  0
LINE
  5
21E
330
1A
100
AcDbEntity
  8
BLACK
  6
CONTINUOUS
100
AcDbLine
 10
181.6991510000000005
 20
-131.0816059999999936
 30
0
 11
182.0801040000000057
 21
-131.0816059999999936
 31
0
  0
LINE
  5
21F
330
1A
100
AcDbEntity
  8
BLACK
  6
CONTINUOUS
100
AcDbLine
 10
182.0801040000000057
 20
-131.0816059999999936
 30
0
 11
182.2705799999999954
 21
-131.1768439999999885
 31
0
  0
LINE
  5
220
330
1A
100
AcDbEntity
  8
BLACK
  6
CONTINUOUS
100
AcDbLine
 10
183.0324849999999799
 20
-133.1768439999999885
 30
0
 11
183.1277230000000031
 21
-133.0816059999999936
 31
0
  0
LINE
  5
221
330
1A
100
AcDbEntity
  8
BLACK
  6
CONTINUOUS
100
AcDbLine
 10
183.1277230000000031
 20
-133.0816059999999936
 30
0
 11
183.3181989999999928
 21
-132.7958919999999807
 31
0
  0
LINE
  5
222
330
1A
100
AcDbEntity
  8
BLACK
  6
CONTINUOUS
100
AcDbLine
 10
183.3181989999999928
 20
-132.7958919999999807
 30
0
 11
183.4134369999999876
 21
-132.6054159999999911
 31
0
  0
LINE
  5
223
330
1A
100
AcDbEntity
  8
BLACK
  6
CONTINUOUS
100
AcDbLine
 10
183.4134369999999876
 20
-132.6054159999999911
 30
0
 11
183.5086749999999824
 21
-132.3197020000000066
 31
0
  0
LINE
  5
224
330
1A
100
AcDbEntity
  8
BLACK
  6
CONTINUOUS
100
AcDbLine
 10
183.5086749999999824
 20
-132.3197020000000066
 30
0
 11
183.6039130000000057
 21
-131.8435110000000066
 31
0
  0
LINE
  5
225
330
1A
100
AcDbEntity
  8
BLACK
  6
CONTINUOUS
100
AcDbLine
 10
183.6039130000000057
 20
-131.8435110000000066
 30
0
 11
183.6039130000000057
 21
-131.4625589999999988
 31
0
  0
LINE
  5
226
330
1A
100
AcDbEntity
  8
BLACK
  6
CONTINUOUS
100
AcDbLine
 10
183.6039130000000057
 20
-131.4625589999999988
 30
0
 11
183.5086749999999824
 21
-130.9863679999999988
 31
0
  0
LINE
  5
227
330
1A
100
AcDbEntity
  8
BLACK
  6
CONTINUOUS
100
AcDbLine
 10
183.5086749999999824
 20
-130.9863679999999988
 30
0
 11
183.4134369999999876
 21
-130.7006539999999859
 31
0
  0
LINE
  5
228
330
1A
100
AcDbEntity
  8
BLACK
  6
CONTINUOUS
100
AcDbLine
 10
183.4134369999999876
 20
-130.7006539999999859
 30
0
 11
183.3181989999999928
 21
-130.5101779999999962
 31
0
  0
LINE
  5
229
330
1A
100
AcDbEntity
  8
BLACK
  6
CONTINUOUS
100
AcDbLine
 10
183.3181989999999928
 20
-130.5101779999999962
 30
0
 11
183.1277230000000031
 21
-130.2244629999999859
 31
0
  0
LINE
  5
22A
330
1A
100
AcDbEntity
  8
BLACK
  6
CONTINUOUS
100
AcDbLine
 10
183.1277230000000031
 20
-130.2244629999999859
 30
0
 11
183.0324849999999799
 21
-130.129224999999991
 31
0
  0
ENDSEC
  0
SECTION
  2
OBJECTS
  0
DICTIONARY
  5
20
330
0
100
AcDbDictionary
281
1
  3
ACAD_GROUP
350
22B
  3
ACAD_LAYOUT
350
21
  3
ACAD_PLOTSTYLENAME
350
11
  0
DICTIONARY
  5
22B
330
20
100
AcDbDictionary
281
1
  0
ACDBDICTIONARYWDFLT
  5
11
330
20
100
AcDbDictionary
281
1
  3
Normal
350
10
100
AcDbDictionaryWithDefault
340
10
  0
ACDBPLACEHOLDER
  5
10
330
11
  0
DICTIONARY
  5
21
330
20
100
AcDbDictionary
281
1
  3
Model
350
1D
  3
Layout1
350
1E
  3
Layout2
350
1F
  0
LAYOUT
  5
1D
330
21
100
AcDbPlotSettings
  1

  2
none_device
  4
A3
  6

 40
0.0
 41
0.0
 42
0.0
 43
0.0
 44
420.0
 45
297.0
 46
0.0
 47
0.0
 48
0.0
 49
0.0
140
0.0
141
0.0
142
1.0
143
1.0
 70
1024
 72
1
 73
0
 74
5
  7

 75
16
 76
0
 77
2
 78
300
147
1.0
148
0.0
149
0.0
100
AcDbLayout
  1
Model
 70
1
 71
0
 10
0.0
 20
0.0
 11
420.0
 21
297.0
 12
0.0
 22
0.0
 32
0.0
 14
1e+20
 24
1e+20
 34
1e+20
 15
-1e+20
 25
-1e+20
 35
-1e+20
146
0.0
 13
0.0
 23
0.0
 33
0.0
 16
1.0
 26
0.0
 36
0.0
 17
0.0
 27
1.0
 37
0.0
 76
0
330
1A
  0
LAYOUT
  5
1E
330
21
100
AcDbPlotSettings
  1

  2
none_device
  4
A3
  6

 40
0.0
 41
0.0
 42
0.0
 43
0.0
 44
420.0
 45
297.0
 46
0.0
 47
0.0
 48
0.0
 49
0.0
140
0.0
141
0.0
142
1.0
143
1.0
 70
0
 72
1
 73
0
 74
5
  7

 75
16
 76
0
 77
2
 78
300
147
1.0
148
0.0
149
0.0
100
AcDbLayout
  1
Layout1
 70
1
 71
1
 10
0.0
 20
0.0
 11
420.0
 21
297.0
 12
0.0
 22
0.0
 32
0.0
 14
1e+20
 24
1e+20
 34
1e+20
 15
-1e+20
 25
-1e+20
 35
-1e+20
146
0.0
 13
0.0
 23
0.0
 33
0.0
 16
1.0
 26
0.0
 36
0.0
 17
0.0
 27
1.0
 37
0.0
 76
0
330
1B
  0
LAYOUT
  5
1F
330
21
100
AcDbPlotSettings
  1

  2
none_device
  4
A3
  6

 40
0.0
 41
0.0
 42
0.0
 43
0.0
 44
420.0
 45
297.0
 46
0.0
 47
0.0
 48
0.0
 49
0.0
140
0.0
141
0.0
142
1.0
143
1.0
 70
0
 72
1
 73
0
 74
5
  7

 75
16
 76
0
 77
2
 78
300
147
1.0
148
0.0
149
0.0
100
AcDbLayout
  1
Layout2
 70
1
 71
2
 10
0.0
 20
0.0
 11
420.0
 21
297.0
 12
0.0
 22
0.0
 32
0.0
 14
1e+20
 24
1e+20
 34
1e+20
 15
-1e+20
 25
-1e+20
 35
-1e+20
146
0.0
 13
0.0
 23
0.0
 33
0.0
 16
1.0
 26
0.0
 36
0.0
 17
0.0
 27
1.0
 37
0.0
 76
0
330
1C
  0
ENDSEC
  0
EOF
